<svg width="100%" height="100%" viewBox="0 0 2043 1830" version="1.1" xmlns="http://www.w3.org/2000/svg"
  xmlns:xlink="http://www.w3.org/1999/xlink" xml:space="preserve" xmlns:serif="http://www.serif.com/"
  style="fill-rule:evenodd;clip-rule:evenodd;stroke-linejoin:round;stroke-miterlimit:2;">
  <g>
    <g>
      <g>
        <g>
          <path
            d="M861.485,41.807c-25.461,11.551 -52.808,16.737 -79.921,22.161c-27.819,5.421 -55.166,12.258 -81.334,22.63c-21.689,8.724 -43.378,18.154 -58.937,36.306c-14.616,16.975 -25.698,37.013 -43.38,50.922c-0.47,0.237 -0.707,0.707 -0.707,1.179c-0.942,0.472 -1.886,0.945 -2.828,1.414c-0.707,0.472 -1.179,0.945 -1.414,1.652c-43.85,20.037 -82.041,54.929 -115.047,88.641c-37.957,39.136 -73.083,81.57 -105.382,125.185c-4.949,6.837 -9.9,13.672 -14.851,20.51c3.772,-8.252 7.544,-16.738 10.844,-25.224c12.024,-30.178 20.51,-62.004 24.754,-94.065c4.479,-32.299 1.886,-63.653 2.358,-95.952c0.235,-18.623 2.828,-36.777 7.78,-54.694c3.772,-14.617 12.495,-30.413 13.202,-45.264c0,-0.472 -0.237,-0.707 -0.472,-0.944c0.235,-0.942 -0.944,-1.884 -1.886,-1.177c-25.933,20.273 -49.98,41.964 -64.36,72.139c-14.144,29.94 -24.754,65.067 -28.998,97.838c-5.186,38.191 0.707,76.383 2.593,114.575c0.944,17.916 1.179,35.833 -0.707,53.75c-1.886,18.389 -8.014,34.184 -13.203,51.394c-38.191,62.239 -70.96,128.248 -93.593,196.852c-4.714,14.382 -9.193,28.761 -12.965,43.378c-0.472,-4.714 -0.707,-9.194 -1.414,-13.673c-3.3,-25.461 -10.61,-50.45 -21.454,-73.79c-1.179,-2.593 -2.593,-5.186 -4.007,-7.779c-0,-0.472 -0.238,-1.179 -0.238,-1.652c1.417,-8.486 -2.121,-18.388 -1.414,-27.347c0.945,-13.437 4.717,-26.875 11.082,-38.898c10.373,-19.568 30.647,-31.592 38.662,-52.102c9.667,4.951 22.161,0.707 30.884,-4.479c9.431,-5.658 15.559,-15.559 13.203,-26.875c-2.358,-11.552 -13.91,-20.275 -25.226,-20.982c-11.789,-0.707 -21.455,8.016 -25.696,18.389c-4.01,10.137 -4.717,25.461 4.714,33.005c-6.601,13.201 -19.331,20.745 -28.999,31.12c-8.249,8.958 -14.851,19.803 -19.565,31.117c-1.18,3.065 -2.359,6.365 -3.3,9.668c0.941,-11.317 3.062,-22.634 4.948,-33.713c4.245,-25.226 6.131,-50.687 2.593,-75.914c0.238,-0.235 0.473,-0.707 0.473,-1.176c10.844,-4.717 22.633,-11.789 27.347,-23.341c4.244,-10.372 2.593,-22.633 -4.244,-31.591c-3.301,-4.242 -7.78,-8.014 -12.966,-9.9c-4.714,-1.652 -11.551,-2.359 -15.796,0.707c-4.714,3.3 -7.307,8.958 -9.193,14.144c-2.358,6.6 -4.244,13.91 -4.716,20.982c-0.942,12.496 4.009,26.875 17.209,30.647c-0.707,14.617 0,29.469 -1.414,44.085c-1.414,16.74 -5.421,33.006 -8.251,49.509c-2.121,12.023 -4.479,27.819 -3.535,42.198c-20.747,-32.533 -45.501,-62.708 -55.873,-100.428c2.121,-5.895 3.065,-12.261 4.714,-18.389c1.416,-5.658 3.772,-11.551 3.302,-17.682c-0.709,-10.844 -11.317,-18.154 -21.219,-20.037c-10.372,-1.886 -19.331,3.3 -23.338,12.965c-4.009,9.9 -1.416,20.51 4.479,29.234c6.128,8.958 16.973,19.802 28.996,16.03c4.245,28.761 18.624,53.043 33.948,77.091c-29.703,-12.494 -55.402,-30.176 -82.277,-48.33c0,-0.707 -0.472,-1.414 -1.179,-1.648c-0.235,-0 -0.47,-0 -0.47,-0.238c-2.358,-6.128 -1.886,-12.73 -2.83,-19.33c-0.707,-5.424 -2.593,-10.373 -5.893,-14.617c-6.365,-8.017 -17.447,-12.496 -27.347,-9.431c-9.431,2.831 -16.975,12.024 -17.682,21.689c-0.707,11.082 6.365,23.813 15.561,29.941c5.186,3.537 12.021,4.951 18.386,3.3c6.365,-1.649 12.496,-10.138 19.568,-7.78l0.472,0c24.047,24.755 57.288,41.964 89.349,54.46c7.072,11.317 14.382,22.396 20.512,34.182c12.021,23.106 20.51,48.095 24.989,73.791c0.235,0.944 0.235,1.886 0.472,2.83c-1.416,-2.123 -2.83,-4.007 -4.244,-5.893c-6.6,-10.138 -13.438,-19.805 -21.454,-28.764c-13.438,-15.086 -30.175,-26.875 -50.685,-29.468l-0,-0.235c0.235,-11.082 -0,-22.868 -6.837,-32.064c-2.831,-3.772 -6.603,-6.835 -11.082,-8.486c-4.949,-1.651 -11.552,-2.593 -16.503,-0.942c-9.665,3.063 -14.144,15.794 -12.493,24.989c0.472,2.593 1.649,4.952 2.828,7.545c1.416,3.063 0.944,5.893 0.944,9.193c-0,4.714 2.593,8.486 6.365,10.844c11.317,6.838 24.282,-3.065 34.892,-7.072c0.942,-0.472 1.414,-1.179 1.414,-1.886c22.631,5.893 39.606,20.747 53.043,39.371c5.658,7.779 10.845,16.031 16.031,24.282c3.302,5.186 6.365,11.079 10.137,16.268c0.472,6.365 0.944,12.73 0.944,19.096c0.235,9.9 -1.886,21.216 -0.472,31.117c-2.828,14.147 -5.186,28.291 -7.307,42.436c-1.886,14.144 -5.423,28.761 -1.651,42.908c1.179,4.242 8.016,5.893 10.137,1.414c4.952,-11.082 5.187,-22.161 6.838,-34.185c1.886,-14.144 4.007,-28.289 6.835,-42.436c2.358,-12.493 5.186,-24.989 8.251,-37.482c39.843,-0 76.856,-13.203 108.682,-37.015c18.154,-13.438 34.892,-26.875 56.816,-33.475c19.333,-5.659 39.37,-7.073 58.231,-15.089c62.002,-26.403 86.991,-99.959 148.523,-128.248c1.886,-0.944 0.472,-4.244 -1.414,-3.537c-41.257,15.089 -86.756,19.568 -129.899,26.64c-37.957,6.131 -75.911,14.617 -111.275,30.413c-54.929,24.754 -94.3,72.374 -120.468,125.889c0.47,-1.414 0.707,-2.828 1.179,-4.242c15.324,-51.394 34.889,-102.317 58.936,-150.411c12.731,-25.461 26.406,-50.685 41.257,-75.204c8.017,-4.949 14.145,-13.2 21.217,-19.096c9.431,-8.014 19.803,-15.324 30.412,-21.924c8.252,-5.186 16.738,-9.902 25.462,-14.382c8.251,0.473 16.268,0.473 24.519,0.945c0.942,0.469 1.886,0.941 3.063,1.414c2.358,1.414 4.951,2.828 7.074,4.714c3.535,2.83 7.073,6.13 10.608,9.195c-0.235,0.472 -0.47,0.707 -0.707,1.179c-1.414,0.942 -2.594,2.356 -3.773,3.535c-5.186,5.187 -6.6,14.617 -3.772,21.454c3.772,8.959 15.796,13.438 23.575,6.838c8.252,-6.838 8.724,-21.219 2.593,-29.471c-2.593,-3.772 -6.835,-8.014 -11.786,-7.542c-1.179,0.235 -2.358,0.47 -3.537,1.177c-3.063,-4.007 -6.366,-7.542 -10.138,-10.607c0.944,0.235 1.886,0.235 2.831,0.469c12.493,2.831 24.516,6.838 36.777,10.375c-0.237,0.47 -0.707,0.707 -0.944,1.179c-0.472,0.707 -1.414,1.886 -1.649,3.063c-2.83,6.838 -0.472,15.326 6.128,19.333c8.017,4.714 18.624,1.179 22.868,-6.837c3.772,-6.838 3.538,-20.275 -4.479,-24.282c-5.421,-2.593 -17.917,-1.651 -20.747,4.714c-18.152,-8.252 -41.962,-18.624 -63.653,-18.389c8.489,-4.007 17.212,-8.014 25.699,-11.786c12.493,-5.659 25.223,-10.845 37.954,-16.503c8.489,3.065 18.389,2.593 27.112,3.065c13.438,0.707 26.875,1.649 40.078,0.942c20.275,4.244 34.654,22.161 54.929,26.64c-0.234,0.707 -0.234,1.414 0,1.886c-4.007,11.789 -0.941,23.34 11.789,28.527c10.845,4.479 30.413,3.3 37.248,-7.78c6.13,-10.137 0.472,-28.291 -10.373,-33.242c-11.551,-5.421 -27.347,-0.707 -36.305,7.781c-8.959,-5.895 -18.861,-10.137 -28.055,-16.033c-4.951,-3.3 -9.902,-6.6 -15.088,-9.193c16.03,-2.121 33.005,-6.837 45.029,-16.975c1.651,9.196 14.616,12.024 23.103,11.317c4.716,-0.472 11.081,-0.942 14.147,-5.186c3.535,-4.714 5.421,-12.259 4.479,-17.917c-1.651,-9.903 -11.789,-21.217 -22.399,-19.803c-13.2,1.649 -20.744,15.796 -20.744,28.054c-9.903,4.952 -19.568,9.666 -30.413,12.259c-11.551,2.593 -23.103,3.065 -34.891,3.065c-11.08,-0 -21.924,-0.707 -33.006,-1.414c-4.714,-0.237 -9.665,-0.944 -14.616,-1.179c5.658,-2.593 11.316,-5.186 16.974,-7.779c0.945,0.234 2.121,-0 3.066,-0.945c0.234,-0.235 0.472,-0.472 0.472,-0.707c20.982,-10.137 41.019,-21.924 58.701,-36.777c4.952,7.779 28.996,-0.707 33.948,-3.773c12.023,-7.544 18.388,-27.347 8.723,-39.133c-10.137,-12.496 -27.347,-6.131 -36.778,4.007c-6.13,6.6 -14.851,26.875 -6.837,35.364c-16.265,11.079 -33.475,20.275 -50.685,28.761c3.535,-8.959 5.186,-19.333 8.014,-28.292c5.186,-17.209 12.024,-33.003 22.161,-47.619c0,-0 0.235,-0 0.235,0.234c0.472,0.473 0.709,0.707 1.179,1.18c9.668,7.307 29.94,-2.831 32.534,-13.675c1.886,-6.835 -0.942,-15.324 -5.187,-20.982c-4.242,-5.893 -12.493,-6.366 -18.858,-4.007c-6.365,2.358 -10.375,6.837 -12.496,12.258c-3.065,5.896 -2.593,15.089 0.235,21.219c-0,0.235 -0,0.235 0.237,0.47c-10.609,10.138 -17.21,22.868 -22.161,36.543c-2.828,7.779 -5.186,15.796 -7.309,23.81c-2.121,8.016 -3.77,16.975 -8.487,23.812c-26.875,12.493 -54.222,23.103 -82.041,34.42c-22.161,9.193 -43.613,19.802 -63.653,32.768c-7.072,4.716 -14.145,9.665 -20.745,15.089c35.834,-55.639 76.384,-108.682 119.761,-157.953c11.787,-13.438 24.048,-26.641 36.778,-39.136c14.145,-5.893 28.524,-10.845 43.613,-12.966c16.031,-2.358 31.826,-1.179 47.857,0.707c32.064,3.3 64.36,8.017 96.658,6.838c29.706,-0.945 58.702,-6.603 85.579,-19.803c27.582,-13.438 53.278,-30.885 80.863,-44.794c0.47,0.237 0.707,0.237 1.179,0.237c0.47,-0 0.707,-0.237 1.177,-0.472c0.472,-0.235 0.707,-0.472 0.944,-0.707c0.472,-0.472 0.707,-1.179 0.472,-1.886c0.707,-0.707 0.707,-2.358 -0.709,-2.593c-32.296,-7.31 -67.895,-6.838 -100.901,-6.131c-33.24,0.707 -66.718,3.772 -99.251,10.138c-29.705,5.658 -58.702,14.382 -86.521,26.168c-13.672,5.893 -27.112,12.258 -40.078,19.568c-2.593,1.414 -5.421,3.065 -8.251,4.479c1.651,-1.414 3.065,-2.83 4.716,-4.007c20.982,-17.919 43.848,-32.299 67.423,-46.208c0.472,-0 0.944,-0 1.179,-0.235c24.282,-10.61 52.339,-8.959 77.8,-15.796c13.437,-3.772 26.168,-9.665 39.368,-13.91c12.968,-4.244 25.934,-7.307 39.136,-10.844c22.396,-6.131 41.727,-20.275 58.939,-35.599c9.428,-8.251 18.152,-17.209 26.403,-26.64c8.723,-10.137 15.796,-22.396 26.64,-30.647c3.3,-3.538 0.235,-8.959 -4.007,-7.072Zm-641.479,439.676c2.355,-9.196 9.43,-17.917 19.565,-18.626c9.903,-0.707 18.626,6.365 22.399,15.089c1.886,4.007 2.355,8.251 0.707,12.495c-1.414,4.242 -4.717,7.545 -8.017,10.373c-8.014,6.13 -20.982,11.551 -30.647,6.365l-0.235,0c-6.838,-6.13 -5.896,-17.917 -3.772,-25.696Zm-57.995,-37.25c0,-6.365 1.177,-12.493 2.828,-18.389c1.414,-5.186 2.828,-11.079 6.131,-15.323c1.648,-2.358 4.241,-4.242 7.072,-4.479c3.065,-0.235 5.893,1.179 8.721,2.358c4.009,1.886 8.016,4.479 11.082,7.779c6.837,7.544 8.486,18.154 5.186,27.819c-4.245,11.787 -15.796,17.917 -26.168,23.81c-10.138,-3.065 -14.852,-13.672 -14.852,-23.575Zm-58.467,60.353l-0.944,0c-8.958,2.593 -17.444,-5.658 -22.396,-12.258c-5.186,-6.838 -8.723,-15.796 -6.13,-24.52c2.358,-8.014 9.196,-13.672 17.682,-12.73c9.195,0.944 19.333,7.779 19.568,17.682c0.472,11.079 -5.424,21.216 -7.78,31.826Zm-63.183,34.892c-4.714,3.3 -9.193,5.893 -15.086,4.951c-10.844,-1.886 -18.154,-12.261 -20.982,-22.398c-2.593,-9.901 1.886,-19.566 11.079,-23.81c8.724,-4.007 18.624,-1.414 24.989,5.423c4.245,4.479 5.896,9.666 6.603,15.559c0.472,5.658 0.707,11.079 2.358,16.502c-3.065,0.235 -6.13,1.887 -8.961,3.773Zm42.202,110.096c-3.773,-0.473 -7.78,-3.066 -8.724,-6.838c-0.472,-2.358 0,-4.714 0,-7.072c0,-2.358 -0.707,-4.479 -1.651,-6.6c-2.121,-4.717 -2.828,-8.961 -1.414,-13.91c1.179,-3.772 3.065,-7.782 6.365,-9.903c3.772,-2.358 9.196,-1.648 13.203,-0.941c4.244,0.941 7.779,2.827 10.609,5.893c7.308,8.016 7.308,20.037 7.545,30.175c-8.489,2.83 -16.268,10.609 -25.933,9.196Zm194.258,9.43c-12.258,8.486 -23.103,18.859 -32.298,30.41c-4.715,6.13 -8.959,12.496 -13.203,19.096c-0.235,0.472 -0.707,1.179 -0.942,1.651c9.903,-18.624 19.803,-36.778 32.768,-53.75c24.047,-31.826 54.932,-55.874 91.945,-71.197c35.126,-14.617 73.083,-21.22 110.33,-27.348c34.185,-5.658 67.425,-11.551 100.666,-20.512c-47.857,28.764 -73.788,86.051 -125.655,110.568c-18.389,8.724 -39.133,12.968 -58.229,19.333c-18.389,6.128 -33.95,14.617 -49.508,25.696c-16.975,12.024 -33.95,23.81 -53.988,30.648c-12.258,4.244 -24.754,6.837 -37.719,8.486c0.941,-0.47 1.886,-0.707 2.828,-1.177c9.665,-4.244 18.154,-10.375 24.989,-18.389c1.179,-1.416 -0.707,-3.302 -2.121,-2.123c-7.308,6.603 -15.796,12.024 -24.755,15.796c-3.534,1.414 -7.307,2.593 -10.844,3.537c4.951,-6.13 9.43,-12.496 14.382,-18.626c10.844,-13.2 23.338,-24.517 36.54,-34.889c0.945,-0.707 -0.235,-2.593 -1.414,-1.886c-13.675,9.193 -25.696,20.744 -36.777,33.005c-5.187,5.893 -10.138,12.259 -15.089,18.387c-1.649,1.886 -3.3,3.772 -4.949,5.658c-0.707,0.237 -1.651,0.237 -2.358,0.472c4.951,-5.893 8.486,-13.203 12.495,-19.803c4.007,-6.6 8.252,-13.437 12.966,-19.568c8.958,-12.023 19.568,-22.631 31.591,-31.826c0.47,-0.707 -0.709,-2.121 -1.651,-1.649Zm171.628,-211.706c3.535,-0.944 6.365,-3.772 10.607,-0.472c1.886,1.414 3.537,4.952 4.244,7.073c1.886,6.602 -1.414,17.681 -9.193,17.919c-8.251,0.469 -11.554,-8.489 -9.902,-15.326c0.234,-1.177 0.706,-2.121 1.179,-3.063c0.941,-1.179 1.414,-2.593 2.121,-4.01c0.237,-0.941 0.707,-1.414 0.944,-2.121Zm32.061,-1.179c0.942,-0.707 1.651,-2.358 2.121,-3.3c0.237,-0.235 0.472,-0.472 0.707,-0.944c0.472,0 0.944,0 1.651,-0.235c3.772,-1.886 7.545,-3.535 11.789,-3.535c8.958,0.235 8.486,11.787 4.479,17.21c-4.009,5.421 -12.261,7.072 -17.447,2.121c-3.772,-3.065 -3.535,-7.31 -3.3,-11.317Zm127.306,-23.81c6.365,-4.479 14.616,-10.137 22.396,-9.665c10.844,0.707 18.861,12.259 17.916,22.631c-0.941,12.258 -18.388,13.437 -27.347,11.316c-12.493,-3.065 -14.144,-13.202 -12.965,-24.282Zm15.089,-70.962c8.014,-3.535 16.265,4.951 18.858,11.789c1.416,3.772 1.179,8.014 -0.235,11.786c-1.886,4.951 -4.007,5.658 -9.43,6.131c-7.78,0.707 -16.503,-0.235 -19.803,-7.78c-0.235,-7.781 3.065,-18.626 10.61,-21.926Zm-43.143,-46.443c5.893,-9.9 18.151,-13.2 27.347,-4.951c8.723,7.781 4.951,23.105 -4.007,28.763c-4.245,2.593 -19.806,9.428 -25.227,5.187c-0.234,-0.473 -0.472,-0.945 -0.944,-1.414c-0.235,-0.238 -0.942,-0.945 -1.177,-1.18c-4.951,-5.658 0.942,-21.454 4.008,-26.405Zm-21.689,-44.792c8.958,-8.486 21.454,1.179 20.037,12.259c-0.707,4.479 -3.535,7.309 -7.307,9.43c-1.651,0.942 -3.537,1.651 -5.186,2.121c-4.009,1.179 -6.603,1.886 -9.665,-1.414c-0.71,-0.942 -1.417,-1.651 -1.886,-2.828c-1.417,-6.602 -1.417,-14.382 4.007,-19.568Zm-228.916,191.666c0,0.472 -0.235,0.707 -0.235,1.179c-0.944,1.886 -1.886,3.772 -2.593,5.658c-0.472,0.707 -0.944,1.649 -1.651,2.356c1.179,-4.714 2.123,-9.665 3.065,-14.38l0.235,0c0.472,-0.472 0.944,-0.944 1.417,-1.413c-0.473,2.12 -0.473,4.479 -0.238,6.6Zm15.561,-26.641c-3.065,5.894 -6.837,12.024 -10.375,18.154c0.473,-2.123 1.18,-4.009 1.652,-5.895c3.065,-4.007 5.893,-8.252 8.486,-12.493c2.123,-3.773 4.244,-7.545 6.13,-11.552c-1.886,3.772 -3.772,7.779 -5.893,11.786Zm22.159,-125.184c-0.942,21.454 -2.593,42.908 -5.421,64.125c-2.828,19.333 -7.072,38.429 -16.503,55.638c-1.886,3.3 -3.772,6.366 -5.893,9.428c0.235,-0.707 0.472,-1.176 0.707,-1.886c4.714,-13.2 9.665,-26.403 12.496,-40.075c2.828,-14.147 4.242,-28.526 4.949,-42.908c0.706,-14.852 1.416,-29.94 1.886,-45.029c0.707,-17.21 1.414,-34.42 1.886,-51.63c-0,-0.941 -1.649,-0.941 -1.649,0c-1.886,30.413 -3.065,61.06 -5.424,91.473c-0.941,14.851 -2.358,29.705 -5.186,44.085c-1.886,9.902 -4.714,19.095 -7.779,28.526l0,-0.235c0.942,-4.951 1.179,-9.903 1.649,-14.854c1.416,-21.689 0.944,-43.141 -0.47,-64.832c0,-1.414 -2.123,-1.414 -2.123,0c1.179,21.691 0.944,43.615 -0.47,65.304c-0.237,5.424 -0.709,10.845 -1.886,16.268c-1.179,5.186 -3.065,9.9 -4.717,14.852c-1.413,4.007 -2.358,8.486 -3.065,12.965c-0.469,0.472 -0.942,1.179 -1.414,1.651c2.359,-16.03 2.593,-32.533 2.359,-46.915c-0.473,-36.778 -6.366,-73.553 -4.717,-110.566c1.651,-36.07 11.317,-73.555 24.519,-107.267c12.496,-31.827 34.892,-54.46 59.646,-76.856c-5.895,10.375 -8.958,24.047 -12.023,34.892c-4.01,13.909 -6.838,28.054 -8.252,42.436c-3.3,34.182 1.886,68.367 -1.886,102.786c-3.537,32.771 -11.789,64.832 -23.103,95.717c-3.537,9.428 -7.309,18.858 -11.316,28.054c0.941,-2.124 1.648,-4.245 2.355,-6.366c6.838,-19.802 8.724,-41.256 10.61,-62.004c0.944,-12.493 1.651,-25.223 1.651,-37.719c0,-0 -1.416,-0 -1.416,0.942Zm159.369,-62.237c3.3,-0.944 6.838,-1.886 10.138,-2.593c7.072,-1.416 14.144,-2.358 21.216,-3.065c13.675,-1.179 27.348,-1.414 41.023,-1.886c1.413,-0 1.413,-2.121 -0,-2.121c-14.147,-0.472 -28.057,-0.237 -42.202,0.942c-3.535,0.235 -7.307,0.707 -10.844,1.179c0.472,-0.237 0.707,-0.237 1.179,-0.472c8.251,-2.358 16.738,-4.479 25.226,-5.893c17.21,-3.3 34.655,-5.659 52.102,-8.252c9.9,-1.414 20.037,-3.065 29.703,-5.423c1.179,-0.235 0.707,-1.886 -0.472,-1.649c-17.68,3.3 -35.597,5.421 -53.516,7.544c-17.444,2.121 -34.654,4.48 -51.629,9.428c-0.47,0 -0.707,0.238 -1.179,0.238c1.886,-0.945 3.537,-1.886 5.423,-2.831c1.414,-0.469 3.066,-0.941 4.479,-1.176c4.952,-1.179 9.903,-2.124 14.852,-3.303c9.903,-2.121 19.803,-4.714 29.233,-8.721c1.179,-0.472 0.238,-2.358 -0.707,-1.886c-9.665,3.3 -19.802,5.893 -29.705,8.014c-1.884,0.472 -4.007,0.944 -5.893,1.179c3.772,-1.649 7.544,-3.3 11.551,-4.951c26.878,-10.372 55.167,-18.624 83.928,-24.282c32.299,-6.365 64.597,-9.431 97.603,-9.9c31.117,-0.707 62.001,3.062 93.121,3.062c-27.348,8.489 -50.923,25.699 -76.619,38.192c-31.591,15.326 -65.069,20.747 -99.961,20.512c-32.768,-0.237 -65.301,-4.244 -98.072,-6.365c-17.21,-1.179 -34.889,0.47 -51.392,5.421c0.47,-0.235 0.942,-0.472 1.414,-0.942Zm286.673,-145.459c-20.038,18.389 -43.613,35.363 -69.781,43.85c-12.496,4.007 -24.754,7.309 -37.015,11.788c-12.731,4.949 -25.931,9.194 -39.368,11.787c-19.568,3.537 -38.664,4.716 -57.288,10.609c0.47,-0.472 0.942,-0.944 1.414,-1.414c18.389,-6.365 37.72,-9.667 56.815,-13.675c1.414,-0.234 0.707,-2.358 -0.472,-2.12c-11.079,2.12 -22.158,4.007 -33.24,6.128c-4.244,0.944 -8.724,1.651 -12.966,2.83c5.421,-3.065 11.08,-5.893 16.738,-8.489c14.145,-6.6 28.289,-13.2 42.436,-20.037c1.179,-0.473 0.235,-2.121 -0.944,-1.652c-15.087,6.603 -29.941,13.44 -45.029,20.275c-4.479,2.124 -8.959,3.772 -13.673,5.659c0.235,-0.235 0.707,-0.707 0.942,-0.942c2.358,-2.593 5.189,-4.952 8.017,-7.073c5.658,-4.009 11.788,-7.544 18.389,-9.667c1.179,-0.47 0.707,-2.356 -0.473,-1.886c-6.365,1.651 -12.258,4.244 -17.681,7.781c3.772,-5.188 7.544,-10.375 11.788,-15.323c18.152,-21.927 44.085,-32.771 70.253,-42.202c43.38,-15.558 90.765,-17.444 134.143,-32.533c-11.079,11.789 -20.982,25.226 -33.005,36.306Z" />
        </g>
        <g>
          <path
            d="M495.127,566.822c-20.747,8.724 -43.378,11.789 -64.597,19.096c-10.373,3.538 -20.51,7.78 -30.175,12.496c-4.952,2.358 -10.373,4.242 -14.852,7.307c-4.951,3.3 -10.375,5.424 -15.561,8.251c-1.179,0.707 -0.235,2.124 0.944,1.652c5.187,-2.593 10.138,-6.131 15.796,-7.78c2.356,-0.707 4.714,-2.358 6.835,-3.302c2.593,-1.177 5.186,-2.593 8.017,-3.77c10.372,-4.951 20.982,-9.43 31.591,-13.202c20.745,-7.073 43.141,-9.196 62.944,-18.861c1.416,-0.707 0.237,-2.359 -0.942,-1.887Z" />
        </g>
        <g>
          <path
            d="M363.342,618.222c-1.886,0.944 -3.537,1.886 -5.424,2.83c-0.941,0.47 -1.648,0.942 -2.593,1.414c-0.469,0.235 -0.707,0.707 -1.179,0.942c-0.469,0.237 -0.942,0.472 -1.176,0.944c-0,0.235 -0,0.472 0.234,0.472c0.473,0 0.942,-0.237 1.414,-0.472c0.473,-0.237 0.945,-0.237 1.414,-0.472c0.945,-0.472 1.886,-0.707 2.831,-1.179c1.886,-0.942 3.772,-1.886 5.658,-2.828c1.179,-0.472 0.235,-2.358 -1.179,-1.651Z" />
        </g>
        <g>
          <path
            d="M344.953,626.703c-2.828,1.414 -5.658,3.537 -8.251,5.423c-2.593,1.884 -5.421,4.008 -8.017,5.894c-2.593,1.886 -5.186,3.772 -7.779,5.658c-1.414,0.942 -2.828,1.886 -4.007,3.063c-0.944,0.709 -2.358,1.416 -2.593,2.83c-0,0.472 0.235,0.707 0.472,0.707c1.414,0 2.356,-0.942 3.535,-1.651c1.414,-0.942 2.83,-2.121 4.007,-3.063c2.595,-1.886 5.423,-3.772 8.016,-5.658c2.593,-1.886 5.187,-3.538 8.017,-5.186c2.828,-1.652 5.658,-3.538 8.251,-5.659c1.177,-1.179 -0.472,-3.065 -1.651,-2.358Z" />
        </g>
        <g>
          <path
            d="M308.175,651.462c-3.535,2.593 -7.072,5.186 -10.607,7.779l-5.188,3.772c-1.649,1.18 -3.773,2.594 -5.187,4.008c-0.941,0.941 0.238,2.358 1.18,1.651c1.886,-0.944 3.537,-2.596 4.951,-3.772c1.651,-1.417 3.535,-2.831 5.186,-4.245c3.537,-2.828 6.837,-5.423 10.372,-8.251c0.945,-0.235 0,-1.651 -0.707,-0.942Z" />
        </g>
        <g>
          <path
            d="M369,592.284c-12.495,4.716 -24.519,10.374 -36.071,17.209c-11.316,6.603 -23.102,14.147 -32.061,23.813c-0.707,0.707 0.235,1.886 0.942,1.414c5.186,-3.773 10.138,-7.78 15.324,-11.552c5.423,-3.772 10.844,-7.544 16.502,-10.844c11.317,-6.838 23.341,-12.731 35.836,-17.447c1.649,-0.707 1.177,-3.063 -0.472,-2.593Z" />
        </g>
        <g>
          <path
            d="M292.38,641.557c-0.707,0.942 -1.414,1.649 -2.356,2.593c-0.707,0.942 -3.538,4.714 -4.245,5.658c-0.472,0.942 -1.179,1.886 -1.414,2.828c0,0.235 0.235,0.472 0.473,0.235c0.941,-0.47 1.648,-1.177 2.355,-1.884c0.707,-0.944 1.652,-1.651 2.359,-2.595c0.707,-0.942 3.537,-4.714 4.244,-5.656c0.235,-0.944 -0.944,-1.886 -1.416,-1.179Z" />
        </g>
        <g>
          <path
            d="M421.571,625.761c-6.128,4.245 -12.493,8.017 -19.096,11.317c-3.3,1.651 -6.6,3.3 -9.9,4.714c-3.065,1.416 -6.837,2.123 -9.43,4.716c-0.472,0.472 -0,1.179 0.472,1.179c3.3,0.235 6.6,-1.886 9.665,-3.065c3.538,-1.651 6.838,-3.3 10.138,-4.951c6.6,-3.537 12.965,-7.545 19.096,-11.786c1.179,-0.945 0.234,-2.831 -0.945,-2.124Z" />
        </g>
        <g>
          <path
            d="M374.893,651.457c-14.616,5.186 -29.94,9.666 -44.084,16.268c-6.838,3.3 -13.438,7.307 -20.041,11.552c-3.3,2.121 -6.6,4.479 -9.9,6.6c-2.593,1.886 -6.13,3.772 -8.016,6.365c-0.472,0.707 0.237,1.414 0.944,1.414c3.3,-0.942 6.128,-3.535 8.958,-5.421c3.066,-2.123 6.128,-4.244 9.194,-6.365c6.13,-4.245 12.73,-8.252 19.333,-11.789c13.907,-7.307 28.996,-11.786 43.847,-16.738c1.651,-0.472 0.945,-2.358 -0.235,-1.886Z" />
        </g>
        <g>
          <path
            d="M281.772,700.496c-0.472,-0.472 -1.179,-0.472 -1.651,-0c-1.414,1.179 -2.828,2.121 -4.244,3.063c-0.707,0.472 -1.414,0.944 -2.121,1.416c-0.472,0.235 -1.179,0.707 -1.414,1.179l-0,0.235l-0.235,0.235c0,0.237 -0.237,0.472 -0.237,0.707c-0.235,0.237 0.237,0.709 0.472,0.709c0.235,0 0.472,0.235 0.472,0.235l0.47,0l-0.235,0l0.472,0c0.472,0 1.179,-0.472 1.649,-0.707c0.707,-0.472 1.651,-0.944 2.358,-1.414c1.651,-1.179 3.065,-2.358 4.244,-3.772c0.47,-0.707 0.47,-1.417 0,-1.886Z" />
        </g>
        <g>
          <path
            d="M509.271,572.483c-7.779,4.714 -14.851,10.138 -22.868,14.617c-3.772,2.121 -7.779,4.242 -11.551,6.128c-4.007,1.886 -8.486,3.537 -12.259,5.658c-1.179,0.707 -0.472,2.593 0.942,2.121c4.245,-0.942 8.252,-3.063 12.024,-4.949c4.244,-1.886 8.251,-4.244 12.258,-6.365c8.017,-4.479 15.561,-9.668 22.399,-15.796c0.941,-0.707 -0,-2.121 -0.945,-1.414Z" />
        </g>
        <g>
          <path
            d="M455.756,604.784c-0.235,-0.472 -0.942,-0.709 -1.414,-0.472c-2.121,0.942 -4.244,2.121 -6.13,3.535c-0.942,0.707 -2.121,1.179 -2.828,2.123c-0.945,0.942 -1.652,1.649 -2.359,2.593c-0.234,0.235 0.235,0.707 0.473,0.47c0.941,-0.47 1.886,-1.177 3.065,-1.649c0.942,-0.472 1.886,-1.414 2.828,-1.886c1.886,-1.179 4.007,-2.358 6.13,-3.3c0.47,-0.237 0.47,-0.944 0.235,-1.414Z" />
        </g>
        <g>
          <path
            d="M483.81,563.285c-12.023,3.537 -24.517,5.658 -36.778,7.31c-12.021,1.648 -24.516,2.121 -36.54,4.479c-0.942,0.235 -0.707,1.649 0.235,1.649c6.365,-0.235 12.73,-0.942 19.096,-1.649c6.365,-0.707 12.495,-1.417 18.861,-2.124c12.023,-1.648 24.047,-3.772 35.598,-7.544c1.179,-0.707 0.707,-2.593 -0.472,-2.121Z" />
        </g>
        <g>
          <path
            d="M398.234,580.03c-4.01,0.707 -7.78,1.414 -11.552,2.828c-1.886,0.707 -3.537,1.651 -5.423,2.593c-1.652,0.944 -3.535,1.886 -4.48,3.3c-0.472,0.472 0.235,1.179 0.707,0.944c1.652,-0.237 3.301,-1.414 4.952,-2.358c1.651,-0.942 3.535,-1.649 5.186,-2.358c3.537,-1.649 7.072,-3.063 10.61,-4.007c0.941,-0 0.707,-1.179 -0,-0.942Z" />
        </g>
        <g>
          <path
            d="M386.682,134.218c-9.668,15.561 -15.324,33.006 -18.861,50.922c-1.651,8.959 -2.828,17.917 -3.772,26.875c-0.942,9.431 -2.358,18.861 -2.121,28.292c-0,0.707 1.414,0.942 1.414,0.235c1.414,-8.724 1.414,-17.682 2.358,-26.403c0.942,-9.431 2.121,-18.626 3.772,-27.82c3.3,-17.916 8.959,-35.598 18.387,-51.394c0.237,-0.707 -0.707,-1.179 -1.177,-0.707Z" />
        </g>
        <g>
          <path
            d="M346.367,218.62c-3.065,12.024 -6.365,24.048 -7.307,36.541c-0.472,6.13 -0.707,12.258 -0.707,18.389c-0,6.13 -0.472,12.258 0.235,18.154c-0,0.469 0.944,0.469 0.944,-0c0.942,-5.659 0.707,-11.317 0.942,-17.21c-0,-6.13 0.235,-12.261 0.707,-18.389c0.944,-12.496 4.007,-24.991 6.6,-37.25c0,-0.707 -1.177,-1.179 -1.414,-0.235Z" />
        </g>
        <g>
          <path
            d="M340.239,316.453c-0.237,-1.414 -0.237,-2.828 -0.472,-4.242c-0.235,-2.83 -0.472,-5.423 -0.472,-8.251c-0,-0.944 -1.649,-0.944 -1.649,-0c-0,2.828 -0,5.656 0.235,8.251c-0,1.414 0.235,2.593 0.472,4.007c0.235,1.179 0.47,2.828 1.179,4.007c0.235,0.238 0.942,0.238 0.942,-0.235c0.235,-0.944 -0,-2.358 -0.235,-3.537Z" />
        </g>
        <g>
          <path
            d="M373.952,212.492c-0.71,13.44 -2.124,26.878 -4.01,40.078c-1.886,12.731 -4.714,25.461 -5.421,38.429c0,0.942 1.649,1.179 1.886,0.235c1.649,-6.365 2.356,-13.203 3.3,-19.568c0.942,-6.6 2.121,-13.2 3.065,-20.038c1.887,-12.965 2.828,-25.933 3.301,-39.136c-0,-1.414 -1.887,-1.414 -2.121,0Z" />
        </g>
        <g>
          <path
            d="M380.317,173.122c-0.944,4.716 -1.886,9.667 -3.303,14.381c-1.414,4.714 -3.062,9.431 -4.479,14.145c-0.235,0.944 1.179,1.651 1.651,0.707c2.121,-4.479 3.3,-9.193 4.714,-13.91c1.18,-4.949 2.359,-9.665 3.066,-14.616c0.237,-1.177 -1.414,-1.649 -1.649,-0.707Z" />
        </g>
        <g>
          <path
            d="M771.427,190.804c-9.431,0.237 -18.861,1.416 -28.289,2.358c-9.196,0.944 -18.626,1.179 -27.819,1.886c-8.724,0.707 -17.21,2.121 -25.696,4.007c-8.961,2.123 -18.389,4.009 -27.113,6.837c-0.472,0.238 -0.472,0.707 0,0.707c8.724,0.238 17.21,-2.828 25.461,-4.714c9.194,-2.121 18.389,-3.772 27.82,-4.716c9.193,-0.942 18.151,-1.886 27.347,-2.356c9.428,-0.472 18.858,-0.944 28.289,-2.123c1.179,-0 1.414,-1.886 -0,-1.886Z" />
        </g>
        <g>
          <path
            d="M681.841,191.276c-11.314,-0 -22.631,3.772 -33.475,6.365l-17.21,4.007c-5.896,1.414 -12.024,2.358 -17.682,4.479c-0.944,0.237 -0.707,1.886 0.235,1.651c5.423,-0.707 10.844,-2.123 16.268,-3.537c5.658,-1.414 11.551,-2.593 17.21,-4.007c5.658,-1.414 11.551,-2.593 17.209,-4.007c5.659,-1.416 11.317,-3.065 17.21,-3.537c1.179,0.234 1.414,-1.414 0.235,-1.414Z" />
        </g>
        <g>
          <path
            d="M714.846,220.034c-9.43,1.652 -18.858,3.066 -28.289,3.773c-9.195,0.709 -18.626,-0 -27.819,0.709c-1.179,0 -0.942,1.414 -0,1.649c9.43,1.179 19.331,0.235 28.761,-0.707c9.196,-0.707 18.624,-1.886 27.82,-3.537c1.414,-0.235 0.941,-2.121 -0.473,-1.887Z" />
        </g>
        <g>
          <path
            d="M651.194,225.223c-6.128,-0 -12.024,-0 -18.152,0.237c-3.065,0 -6.13,0.235 -8.958,0.47c-2.831,0.237 -5.896,0.237 -8.489,1.179c-0.472,0.237 -0.472,0.944 -0,1.179c2.593,0.707 5.658,0.472 8.489,0.472l8.958,0c6.128,-0.235 12.024,-0.707 18.152,-0.944c1.414,-0.235 1.414,-2.593 -0,-2.593Z" />
        </g>
        <g>
          <path
            d="M753.982,205.42c-3.302,0.71 -6.602,1.417 -9.902,2.124c-1.649,0.234 -3.3,0.707 -4.714,1.179c-0.945,0.235 -1.652,0.707 -2.593,0.941c-0.707,0.235 -1.652,0.473 -2.359,0.707c-0.707,0.238 -0.234,1.414 0.473,1.414c0.941,0 1.648,0 2.593,-0.234c0.941,-0 1.648,-0 2.593,-0.235c1.649,-0.238 3.3,-0.472 4.714,-0.945c3.3,-0.941 6.602,-1.886 9.902,-2.827c0.942,-0.473 0.472,-2.359 -0.707,-2.124Z" />
        </g>
        <g>
          <path
            d="M738.894,184.199c-8.724,0.237 -17.682,-0.707 -26.406,-0.942c-4.242,-0.238 -8.251,-0 -12.258,0.472c-3.535,0.47 -8.252,0.942 -11.08,3.3c-0.707,0.47 0,1.649 0.707,1.649c3.773,-0.47 7.308,-2.121 11.08,-2.828c4.244,-0.707 8.723,-0.944 12.968,-0.944c4.241,-0 8.251,-0 12.258,0.237c4.244,0.235 8.486,-0.237 12.731,-0.707c0.234,0.235 0.234,-0.237 -0,-0.237Z" />
        </g>
        <g>
          <path
            d="M764.59,184.906c-3.301,-0.235 -6.601,-0.473 -9.901,-0.473c-1.651,0 -3.3,0 -4.951,0.238c-1.651,-0 -3.3,-0 -4.714,0.707c-0.709,0.234 -0.944,1.648 0,1.886c1.649,0.235 3.3,-0 4.714,-0c1.651,-0 3.3,-0.238 4.951,-0.238c3.3,0 6.6,-0.234 9.901,0c1.179,0 1.179,-1.886 -0,-2.12Z" />
        </g>
        <g>
          <path
            d="M770.72,201.88c-0.707,0.235 -1.414,0.473 -2.121,0.707c0.707,0 1.414,-0.234 2.121,-0.707c-0,0.235 -0,0 -0,0Z" />
        </g>
        <g>
          <path
            d="M791.937,94.38c-16.503,8.251 -33.713,15.324 -51.157,20.982c-8.487,2.828 -17.21,5.186 -25.934,7.307c-8.958,2.123 -18.151,3.3 -26.875,5.896c-0.707,0.235 -0.707,1.648 0.235,1.414c8.959,-0.238 18.154,-2.593 26.878,-4.48c9.193,-2.123 18.151,-4.716 27.11,-7.544c17.682,-5.658 34.656,-12.965 51.159,-21.454c1.177,-0.707 0,-2.593 -1.416,-2.121Z" />
        </g>
        <g>
          <path
            d="M725.219,97.68c-11.08,8.017 -25.224,10.138 -37.72,15.324c-6.128,2.593 -12.023,5.423 -17.682,8.486c-5.893,3.302 -12.493,6.603 -16.737,11.789c-0.235,0.235 -0,0.942 0.472,0.707c6.128,-2.359 11.551,-6.838 17.21,-10.138c6.365,-3.535 12.73,-6.6 19.568,-9.43c12.023,-4.949 25.696,-7.307 36.305,-15.087c0.707,-0.707 -0.472,-2.593 -1.416,-1.651Z" />
        </g>
        <g>
          <path
            d="M724.277,129.037c-7.779,3.302 -15.559,6.602 -23.34,9.668c-3.772,1.414 -7.545,3.062 -11.552,4.241c-4.007,1.414 -8.014,2.124 -11.551,4.245c-0.472,0.235 -0.235,1.179 0.235,1.179c4.244,0.235 8.251,-1.179 12.261,-2.593c4.007,-1.417 8.014,-2.831 11.786,-4.479c7.779,-3.303 15.324,-6.603 23.103,-10.138c1.416,-0.237 0.472,-2.593 -0.942,-2.123Z" />
        </g>
        <g>
          <path
            d="M773.313,81.884c-6.6,2.359 -12.965,4.952 -19.331,7.78c-3.302,1.416 -6.365,3.065 -9.667,4.481c-2.828,1.414 -6.366,2.828 -8.959,4.949c-0.707,0.707 0,1.651 0.944,1.416c1.649,-0.472 3.066,-1.179 4.48,-1.886c1.651,-0.709 3.3,-1.416 4.714,-2.358c3.065,-1.414 6.13,-2.83 8.958,-4.007c6.365,-2.83 12.731,-5.658 19.333,-8.016c1.414,-0.473 0.942,-2.828 -0.472,-2.359Z" />
        </g>
        <g>
          <path
            d="M1311.9,1805.53c-68.664,16.125 -139.189,24.224 -210.889,24.224c-124.478,-0 -244.946,-24.278 -358.58,-72.382c-109.623,-46.45 -208.168,-112.928 -292.802,-197.331c-84.635,-84.62 -151.116,-183.169 -197.322,-292.793c-48.094,-113.633 -72.376,-234.339 -72.376,-358.579c-0,-1.886 1.651,-3.537 3.535,-3.537c1.886,-0 3.537,1.651 3.537,3.537c0,504.266 410.206,914.24 914.243,914.24c74.983,-0 147.885,-9.079 217.664,-26.185c-2.31,2.869 -4.649,5.811 -7.01,8.806Z" />
        </g>
        <g>
          <path
            d="M905.897,24.224c68.665,-16.125 139.189,-24.224 210.892,-24.224c124.475,0 244.943,24.28 358.577,72.381c109.623,46.451 208.168,112.931 292.803,197.334c84.634,84.62 151.115,183.167 197.323,292.793c48.092,113.631 72.374,234.336 72.374,358.577c0,1.886 -1.649,3.537 -3.535,3.537c-1.886,-0 -3.537,-1.651 -3.537,-3.537c0,-504.267 -410.206,-914.238 -914.242,-914.238c-74.984,0 -147.886,9.08 -217.664,26.185c2.309,-2.869 4.648,-5.811 7.009,-8.808Z" />
        </g>
      </g>
      <g>
        <path
          d="M1141.62,528.544c-25.544,40.639 -51.375,84.031 -77.502,130.177c-26.118,46.145 -53.69,91.285 -82.713,135.397c-29.025,44.119 -60.369,85.482 -94.041,124.085c-33.669,38.604 -70.819,70.382 -111.456,95.342c-35.41,22.064 -70.093,37.005 -104.05,44.845c-33.958,7.837 -65.457,11.757 -94.48,11.757c-34.245,-0 -65.887,-3.632 -94.91,-10.888c-29.025,-7.256 -54.128,-18.142 -75.313,-32.655c-21.195,-14.512 -37.877,-32.361 -50.068,-53.546c-12.195,-21.193 -18.287,-45.715 -18.287,-73.582c0,-25.534 5.804,-50.497 17.411,-74.883c11.614,-24.376 27.865,-46.002 48.765,-64.863c20.897,-18.871 45.857,-33.964 74.882,-45.283c29.023,-11.319 60.953,-16.98 95.779,-16.98c27.868,-0 52.828,3.193 74.883,9.578c22.064,6.387 40.925,15.239 56.602,26.558c15.67,11.319 27.572,24.674 35.698,40.056c8.125,15.382 12.191,32.073 12.191,50.065c-0,22.062 -5.366,42.378 -16.111,60.953c-10.736,18.576 -24.96,34.684 -42.664,48.325c-17.706,13.643 -38.022,24.236 -60.953,31.785c-22.926,7.544 -46.29,11.319 -70.093,11.319c-9.285,-0 -19.159,-0.726 -29.609,-2.179c-10.447,-1.453 -20.018,-3.337 -28.727,-5.658c-8.709,-2.322 -15.965,-4.79 -21.769,-7.4c-5.811,-2.619 -8.709,-4.789 -8.709,-6.529c0,-2.906 1.453,-4.359 4.351,-4.359c1.741,0 4.504,0.87 8.271,2.61c3.775,1.749 9.004,3.489 15.677,5.228c6.673,1.741 14.951,3.481 24.817,5.222c9.866,1.746 22.055,2.618 36.567,2.618c24.386,-0 47.313,-3.777 68.791,-11.319c21.48,-7.552 40.056,-17.418 55.726,-29.607c15.677,-12.19 28.01,-26.269 37.005,-42.235c8.997,-15.965 13.498,-32.647 13.498,-50.065c0,-14.512 -3.336,-28.153 -10.016,-40.925c-6.673,-12.772 -16.539,-23.948 -29.599,-33.526c-13.067,-9.571 -29.176,-17.123 -48.325,-22.638c-19.158,-5.516 -41.22,-8.271 -66.183,-8.271c-26.117,0 -52.818,4.503 -80.102,13.498c-27.284,8.997 -52.101,21.912 -74.451,38.746c-22.35,16.835 -40.63,37.008 -54.857,60.515c-14.224,23.507 -21.335,49.492 -21.335,77.933c-0,22.062 5.227,41.795 15.677,59.213c10.45,17.41 24.96,32.216 43.535,44.406c18.575,12.189 41.071,21.624 67.483,28.297c26.415,6.673 55.581,10.019 87.511,10.019c36.567,-0 72.992,-5.085 109.278,-15.239c36.281,-10.162 72.703,-28.011 109.273,-53.554c36.574,-25.544 73.579,-59.789 111.018,-102.75c37.443,-42.952 75.32,-97.521 113.636,-163.694c21.473,-36.574 41.796,-71.403 60.946,-104.488c19.158,-33.088 36.136,-61.968 50.944,-86.642c14.798,-24.672 27.139,-44.405 37.005,-59.205c9.866,-14.806 15.965,-22.208 18.287,-22.208c2.317,0 4.208,0.872 5.661,2.611c1.445,1.74 2.172,2.905 2.172,3.488c-0,4.639 -1.884,10.45 -5.661,17.411c-3.767,6.968 -7.983,17.273 -12.619,30.914c-4.647,13.643 -8.855,31.197 -12.629,52.677c-3.775,21.481 -5.658,49.051 -5.658,82.72c-0,16.253 0.581,32.219 1.738,47.889c1.157,15.677 1.741,31.639 1.741,47.893c-0,44.119 -2.322,88.092 -6.968,131.915c-4.639,43.824 -12.765,86.928 -24.379,129.308l1.741,1.739c20.323,-39.473 42.235,-80.398 65.742,-122.776c23.507,-42.37 47.598,-83.736 72.272,-124.078c24.674,-40.344 49.777,-78.514 75.321,-114.5c25.536,-35.991 50.641,-67.483 75.315,-94.479c24.672,-26.989 48.467,-48.325 71.401,-63.995c22.926,-15.677 44.264,-23.514 63.996,-23.514c11.031,-0 20.61,4.213 28.735,12.626c8.128,8.421 12.191,16.692 12.191,24.818c-0,8.125 -3.041,15.527 -9.14,22.207c-6.099,6.672 -14.37,10.009 -24.817,10.009c-9.286,-0 -15.823,-2.027 -19.59,-6.097c-3.775,-4.063 -6.53,-8.702 -8.269,-13.929c-1.748,-5.222 -3.346,-9.866 -4.791,-13.931c-1.453,-4.063 -4.789,-6.097 -10.016,-6.097c-23.796,0 -63.421,32.074 -118.859,96.218c-55.437,64.147 -120.884,163.846 -196.35,299.1c-24.376,43.536 -43.097,78.362 -56.164,104.489c-13.058,26.119 -22.781,46.147 -29.168,60.076c-6.385,13.937 -10.878,23.077 -13.498,27.428c-2.61,4.358 -5.658,6.537 -9.14,6.537c-1.157,-0 -2.322,-0.296 -3.479,-0.879c-1.165,-0.574 -1.741,-2.027 -1.741,-4.351c-0,-5.22 1.014,-9.721 3.041,-13.498c2.036,-3.767 4.358,-9.426 6.97,-16.977c2.61,-7.545 5.075,-17.992 7.4,-31.347c2.321,-13.346 3.486,-32.505 3.486,-57.465c0,-31.93 -2.322,-64.292 -6.968,-97.089c-4.644,-32.8 -6.968,-63.708 -6.968,-92.731c-0,-35.41 2.467,-66.183 7.399,-92.3c4.941,-26.12 10.45,-48.613 16.549,-67.483c6.099,-18.864 11.757,-34.541 16.977,-47.017c5.23,-12.484 8.421,-22.791 9.581,-30.916l-1.741,-0Z"
          style="fill-rule:nonzero;" />
      </g>
      <g>
        <path
          d="M1849.1,891.29c-0,-11.031 -2.617,-18.726 -7.837,-23.077c-5.23,-4.351 -13.06,-6.53 -23.51,-6.53c-18.583,0 -39.623,6.969 -63.132,20.898c-23.508,13.929 -47.455,31.93 -71.832,53.985c-24.386,22.057 -48.181,47.024 -71.403,74.882c-23.221,27.868 -43.247,55.726 -60.084,83.591c12.191,-4.063 28.011,-9.283 47.455,-15.667c19.447,-6.387 40.202,-13.939 62.263,-22.648c22.055,-8.699 44.262,-18.718 66.614,-30.037c22.343,-11.319 42.514,-23.946 60.513,-37.877c17.994,-13.929 32.649,-29.023 43.968,-45.276c11.319,-16.251 16.985,-33.669 16.985,-52.244Zm-541.603,289.081c5.803,-3.479 16.836,-8.268 33.087,-14.367c16.261,-6.092 33.669,-12.476 52.245,-19.159c18.575,-6.673 36.281,-13.057 53.115,-19.149c16.835,-6.099 29.319,-10.6 37.444,-13.498c9.866,-13.355 22.495,-29.168 37.877,-47.455c15.382,-18.287 32.657,-37.294 51.806,-57.033c19.159,-19.74 39.472,-39.187 60.953,-58.344c21.481,-19.151 43.25,-36.424 65.304,-51.806c22.062,-15.381 43.831,-27.867 65.312,-37.446c21.473,-9.571 41.787,-14.36 60.945,-14.36c13.937,0 25.687,3.194 35.265,9.579c9.581,6.379 14.37,17.122 14.37,32.216c-0,18.575 -6.099,36.281 -18.287,53.116c-12.191,16.834 -28.154,32.647 -47.887,47.455c-19.742,14.8 -41.939,28.729 -66.614,41.797c-24.674,13.057 -49.338,24.807 -74.013,35.257c-24.671,10.45 -48.324,19.597 -70.962,27.434c-22.638,7.833 -41.509,14.074 -56.602,18.721c-8.126,12.771 -18.721,30.906 -31.778,54.416c-13.06,23.514 -25.832,49.201 -38.315,77.061c-12.477,27.865 -23.365,56.602 -32.65,86.201c-9.29,29.607 -13.936,56.891 -13.936,81.851c-0,8.709 1.74,15.677 5.227,20.897c3.482,5.23 8.128,7.84 13.931,7.84c13.353,-0 28.154,-5.077 44.405,-15.239c16.253,-10.162 35.41,-25.686 57.474,-46.584c17.408,-16.837 29.749,-29.894 37.005,-39.186c7.256,-9.283 12.046,-13.93 14.37,-13.93c2.896,0 4.348,1.453 4.348,4.351c0,1.748 -6.241,9.579 -18.718,23.515c-12.483,13.931 -27.427,29.025 -44.845,45.276c-15.67,14.512 -31.928,27.429 -48.762,38.748c-16.837,11.319 -31.924,16.978 -45.277,16.978c-16.836,-0 -30.62,-6.092 -41.358,-18.287c-10.743,-12.189 -16.108,-33.957 -16.108,-65.304c-0,-25.537 2.61,-49.777 7.832,-72.704c5.228,-22.933 11.9,-44.407 20.026,-64.435c8.128,-20.028 17.13,-38.315 26.996,-54.854c9.866,-16.546 19.447,-31.497 28.737,-44.845l-1.748,-1.741c-10.448,3.482 -23.507,7.833 -39.177,13.06c-15.677,5.22 -31.643,10.738 -47.894,16.539c-16.253,5.811 -31.93,11.76 -47.016,17.856c-15.094,6.092 -26.997,11.753 -35.706,16.98c-20.897,37.151 -44.837,71.689 -71.834,103.619c-26.996,31.921 -57.321,59.644 -90.99,83.153c-33.669,23.508 -70.531,42.083 -110.587,55.724c-40.049,13.643 -83.296,20.466 -129.737,20.466c-32.504,0 -62.256,-3.917 -89.252,-11.757c-26.989,-7.837 -50.208,-19.014 -69.655,-33.526c-19.452,-14.51 -34.69,-32.064 -45.714,-52.675c-11.031,-20.612 -16.546,-43.393 -16.546,-68.353c-0,-32.504 6.53,-61.825 19.594,-87.942c13.06,-26.127 30.621,-48.327 52.678,-66.614c22.054,-18.287 47.455,-32.359 76.192,-42.232c28.727,-9.867 58.479,-14.801 89.249,-14.801c18.576,-0 37.006,2.905 55.286,8.709c18.289,5.803 34.836,14.072 49.634,24.817c14.808,10.736 26.703,24.091 35.705,40.049c8.997,15.963 13.491,34.107 13.491,54.423c-0,22.638 -5.516,43.104 -16.539,61.384c-11.031,18.287 -25.544,33.965 -43.535,47.024c-18.002,13.058 -38.03,23.069 -60.084,30.038c-22.062,6.968 -43.831,10.449 -65.305,10.449c-11.614,0 -22.933,-0.871 -33.957,-2.612c-11.03,-1.739 -20.897,-3.775 -29.606,-6.097c-8.709,-2.324 -15.82,-4.639 -21.335,-6.961c-5.518,-2.324 -8.271,-4.358 -8.271,-6.099c0,-4.062 2.027,-6.098 6.092,-6.098c0.581,-0 3.191,0.878 7.837,2.617c4.646,1.741 10.745,3.77 18.287,6.092c7.545,2.321 16.108,4.358 25.689,6.098c9.578,1.741 19.883,2.611 30.906,2.611c19.74,-0 40.056,-2.899 60.954,-8.709c20.897,-5.804 39.767,-14.513 56.595,-26.118c16.834,-11.614 30.773,-25.977 41.796,-43.106c11.031,-17.121 16.547,-37.006 16.547,-59.644c-0,-13.929 -3.337,-26.989 -10.009,-39.184c-6.683,-12.191 -16.118,-22.638 -28.306,-31.347c-12.189,-8.702 -26.701,-15.67 -43.536,-20.897c-16.834,-5.223 -35.697,-7.833 -56.595,-7.833c-27.867,0 -55.006,4.639 -81.412,13.929c-26.415,9.293 -50.072,22.352 -70.972,39.187c-20.897,16.834 -37.724,37.293 -50.496,61.384c-12.772,24.091 -19.159,50.934 -19.159,80.541c0,19.742 4.935,38.172 14.801,55.295c9.873,17.122 23.66,32.216 41.363,45.276c17.706,13.06 39.18,23.364 64.435,30.916c25.248,7.542 53.259,11.319 84.022,11.319c35.994,-0 70.389,-6.242 103.181,-18.728c32.8,-12.476 63.275,-29.166 91.429,-50.065c28.153,-20.897 53.554,-45.276 76.192,-73.142c22.638,-27.858 41.797,-57.178 57.464,-87.942c-10.447,4.063 -21.911,9.578 -34.388,16.539c-12.483,6.968 -24.386,13.937 -35.705,20.897c-11.319,6.971 -20.897,12.925 -28.734,17.857c-7.833,4.934 -12.046,7.401 -12.622,7.401c-4.646,0 -6.968,-1.452 -6.968,-4.358c-0,-2.317 4.205,-6.38 12.629,-12.191c8.413,-5.803 19.006,-12.331 31.778,-19.587c12.771,-7.256 26.851,-14.951 42.232,-23.079c15.385,-8.125 30.04,-15.667 43.969,-22.638c9.29,-15.667 21.193,-34.969 35.705,-57.902c14.51,-22.926 30.333,-46.729 47.455,-71.403c17.123,-24.665 35.265,-48.613 54.416,-71.834c19.157,-23.219 38.315,-42.666 57.472,-58.334l-1.741,-1.748c-11.031,6.385 -22.788,13.353 -35.265,20.898c-12.483,7.551 -25.248,14.512 -38.315,20.897c-13.06,6.387 -26.415,11.759 -40.048,16.108c-13.641,4.358 -27.139,6.53 -40.495,6.53c-40.056,-0 -60.081,-20.602 -60.081,-61.815c-0,-16.835 0.876,-29.902 2.617,-39.185c1.741,-9.292 2.61,-16.837 2.61,-22.638c0,-12.772 -4.351,-19.159 -13.06,-19.159c-2.905,0 -7.694,1.31 -14.367,3.92c-6.673,2.61 -15.239,7.257 -25.689,13.929c-10.447,6.673 -22.638,15.677 -36.574,26.997c-13.929,11.319 -29.599,25.974 -47.017,43.966c-29.606,31.347 -50.646,56.89 -63.125,76.63c-12.484,19.733 -20.178,29.599 -23.076,29.599c-3.479,-0 -5.228,-1.738 -5.228,-5.22c0,-0.581 2.618,-4.789 7.838,-12.627c5.23,-7.839 12.045,-17.41 20.466,-28.729c8.414,-11.327 18.28,-23.803 29.599,-37.446c11.319,-13.641 23.079,-26.558 35.267,-38.746c24.96,-25.544 49.051,-46.298 72.272,-62.263c23.222,-15.956 46.729,-23.939 70.531,-23.939c17.995,0 30.183,5.947 36.57,17.849c6.385,11.9 9.578,24.817 9.578,38.746c0,9.867 -0.583,18.864 -1.741,26.997c-1.164,8.125 -1.741,18.28 -1.741,30.468c0,12.771 1.453,20.754 4.351,23.948c2.906,3.193 8.421,4.789 16.549,4.789c11.024,-0 23.219,-2.322 36.567,-6.961c13.353,-4.646 27.139,-10.743 41.364,-18.287c14.217,-7.552 28.729,-15.966 43.535,-25.256c14.801,-9.285 29.456,-18.575 43.968,-27.86c8.709,-5.801 17.704,-12.627 26.997,-20.466c9.29,-7.831 18.575,-15.382 27.865,-22.638c9.283,-7.257 18.137,-13.499 26.558,-18.719c8.414,-5.227 16.108,-7.837 23.069,-7.837c9.292,0 13.936,3.479 13.936,10.447c0,6.387 -3.632,11.465 -10.888,15.239c-7.254,3.775 -16.539,7.983 -27.865,12.629c-11.319,4.644 -24.084,10.736 -38.308,18.287c-14.224,7.542 -28.011,17.992 -41.364,31.338c-12.764,12.771 -25.536,29.608 -38.307,50.506c-12.772,20.897 -25.689,43.104 -38.747,66.611c-13.067,23.51 -25.838,46.874 -38.315,70.093c-12.486,23.222 -24.531,43.538 -36.136,60.953l1.739,1.741Z"
          style="fill-rule:nonzero;" />
      </g>
    </g>
    <g>
      <g>
        <g>
          <path d="M1972.34,1013.14l70.522,6.168l-0.816,9.332l-70.522,-6.167l0.816,-9.333Z"
            style="fill-rule:nonzero;" />
        </g>
      </g>
      <g>
        <g>
          <path
            d="M1966.35,1070.73l69.594,12.965l-1.76,9.447l-61.45,26.375l54.641,10.179l-1.645,8.83l-69.594,-12.965l1.76,-9.447l61.497,-26.366l-54.688,-10.188l1.645,-8.83Z"
            style="fill-rule:nonzero;" />
        </g>
      </g>
      <g>
        <g>
          <path
            d="M1940.1,1185.61l75.757,-4.962l-3.038,9.675l-54.577,2.148c-4.375,0.178 -8.432,0.203 -12.171,0.075c3.358,2.202 6.663,4.572 9.914,7.112l43.338,33.65l-2.864,9.122l-59.238,-47.652l2.879,-9.168Z"
            style="fill-rule:nonzero;" />
        </g>
      </g>
      <g>
        <g>
          <path d="M1913.51,1260.38l65.171,27.645l-3.658,8.624l-65.171,-27.644l3.658,-8.625Z"
            style="fill-rule:nonzero;" />
        </g>
      </g>
      <g>
        <g>
          <path
            d="M1881.34,1329.23l54.899,29.74l11.109,-20.508l7.346,3.979l-26.727,49.338l-7.345,-3.979l11.155,-20.593l-54.9,-29.74l4.463,-8.237Z"
            style="fill-rule:nonzero;" />
        </g>
      </g>
      <g>
        <g>
          <path
            d="M1847.31,1389.34l42.146,63.042l-5.822,8.244l-74.54,-17.167l6.156,-8.717l22.277,5.622l17.075,-24.18l-13.03,-18.718l5.738,-8.126Zm11.964,33.453l-13.843,19.605l20.276,5.274c6.165,1.594 11.128,3.049 14.889,4.365c-3.188,-3.355 -6.136,-6.993 -8.845,-10.916l-12.477,-18.328Z"
            style="fill-rule:nonzero;" />
        </g>
      </g>
      <g>
        <g>
          <path
            d="M1769.23,1528.18l-8.028,5.377c-4.402,-6.608 -6.397,-13.16 -5.984,-19.655c0.412,-6.495 3.086,-12.482 8.02,-17.959c5.106,-5.669 10.413,-9.241 15.92,-10.714c5.508,-1.473 11.285,-1.165 17.333,0.924c6.047,2.089 11.582,5.396 16.605,9.92c5.478,4.934 9.313,10.284 11.507,16.05c2.193,5.767 2.608,11.535 1.246,17.305c-1.363,5.77 -4.134,10.975 -8.314,15.615c-4.74,5.263 -10.065,8.481 -15.976,9.656c-5.911,1.175 -11.929,0.282 -18.056,-2.68l4.558,-8.308c4.926,2.227 9.307,2.967 13.143,2.22c3.836,-0.748 7.337,-2.88 10.504,-6.396c3.641,-4.042 5.716,-8.294 6.224,-12.754c0.508,-4.46 -0.376,-8.711 -2.65,-12.752c-2.274,-4.041 -5.145,-7.624 -8.613,-10.748c-4.473,-4.028 -8.966,-6.894 -13.477,-8.596c-4.511,-1.702 -8.83,-1.92 -12.958,-0.656c-4.129,1.264 -7.636,3.499 -10.523,6.704c-3.512,3.899 -5.361,8.213 -5.547,12.941c-0.186,4.728 1.503,9.564 5.066,14.506Z"
            style="fill-rule:nonzero;" />
        </g>
      </g>
      <g>
        <g>
          <path d="M1717.7,1544.02l47.855,52.166l-6.903,6.333l-47.855,-52.166l6.903,-6.333Z"
            style="fill-rule:nonzero;" />
        </g>
      </g>
      <g>
        <g>
          <path
            d="M1697.34,1608.4c7.053,9.399 10.051,18.65 8.994,27.754c-1.057,9.105 -5.576,16.652 -13.558,22.642c-5.227,3.922 -10.876,6.21 -16.947,6.862c-6.072,0.652 -11.884,-0.43 -17.438,-3.245c-5.554,-2.816 -10.457,-7.056 -14.708,-12.72c-4.309,-5.742 -7.005,-11.749 -8.088,-18.019c-1.084,-6.271 -0.376,-12.166 2.124,-17.684c2.5,-5.519 6.209,-10.123 11.127,-13.814c5.33,-4 11.059,-6.287 17.189,-6.862c6.129,-0.575 11.947,0.554 17.452,3.385c5.506,2.831 10.123,6.732 13.853,11.701Zm-7.812,5.681c-5.12,-6.823 -10.989,-10.821 -17.604,-11.995c-6.616,-1.173 -12.692,0.318 -18.228,4.472c-5.639,4.232 -8.793,9.698 -9.46,16.397c-0.668,6.699 1.732,13.693 7.201,20.979c3.458,4.61 7.257,8.048 11.394,10.317c4.137,2.268 8.416,3.223 12.836,2.864c4.42,-0.358 8.497,-1.938 12.23,-4.74c5.304,-3.981 8.501,-9.227 9.591,-15.74c1.089,-6.513 -1.564,-14.031 -7.96,-22.554Z"
            style="fill-rule:nonzero;" />
        </g>
      </g>
      <g>
        <g>
          <path
            d="M1592.86,1640.66l35.305,61.359l-8.329,4.792l-59.947,-29.63l27.719,48.174l-7.785,4.48l-35.306,-61.359l8.33,-4.793l59.971,29.673l-27.743,-48.217l7.785,-4.479Z"
            style="fill-rule:nonzero;" />
        </g>
      </g>
      <g>
        <g>
          <path
            d="M1506.78,1687.37l27.975,65.029l-47.02,20.228l-3.301,-7.674l38.414,-16.526l-8.568,-19.917l-35.974,15.476l-3.283,-7.63l35.975,-15.475l-9.522,-22.135l-39.923,17.174l-3.301,-7.674l48.528,-20.876Z"
            style="fill-rule:nonzero;" />
        </g>
      </g>
      <g>
        <g>
          <path
            d="M1432.34,1741.81l-8.207,3.365c-1.453,-3.256 -3.247,-5.74 -5.382,-7.453c-2.135,-1.712 -4.947,-2.757 -8.437,-3.137c-3.49,-0.38 -7.156,0.029 -10.998,1.226c-3.412,1.062 -6.266,2.508 -8.563,4.336c-2.296,1.828 -3.807,3.824 -4.532,5.989c-0.725,2.165 -0.762,4.292 -0.111,6.382c0.66,2.121 1.852,3.781 3.574,4.981c1.723,1.2 4.166,1.898 7.328,2.092c2.034,0.142 6.387,-0.008 13.06,-0.451c6.673,-0.444 11.461,-0.392 14.362,0.154c3.754,0.685 6.812,2.034 9.175,4.045c2.364,2.012 4.029,4.57 4.996,7.675c1.062,3.411 1.088,6.902 0.075,10.471c-1.012,3.569 -3.139,6.702 -6.379,9.397c-3.24,2.695 -7.135,4.751 -11.684,6.168c-5.01,1.561 -9.68,2.13 -14.009,1.709c-4.329,-0.422 -8.012,-1.88 -11.047,-4.373c-3.036,-2.494 -5.249,-5.699 -6.637,-9.616l8.374,-3.317c1.792,4.129 4.357,6.87 7.695,8.224c3.339,1.354 7.605,1.222 12.799,-0.396c5.41,-1.685 9.043,-3.904 10.9,-6.657c1.856,-2.753 2.349,-5.528 1.478,-8.325c-0.756,-2.428 -2.255,-4.153 -4.495,-5.175c-2.209,-1.032 -7.205,-1.237 -14.986,-0.617c-7.781,0.62 -13.216,0.736 -16.304,0.349c-4.499,-0.588 -8.119,-1.981 -10.86,-4.178c-2.742,-2.198 -4.677,-5.11 -5.807,-8.737c-1.12,-3.596 -1.146,-7.305 -0.078,-11.128c1.069,-3.822 3.256,-7.218 6.563,-10.187c3.307,-2.969 7.373,-5.205 12.199,-6.708c6.116,-1.905 11.519,-2.611 16.208,-2.116c4.69,0.495 8.768,2.167 12.234,5.015c3.467,2.849 5.966,6.513 7.496,10.993Z"
            style="fill-rule:nonzero;" />
        </g>
      </g>
    </g>
  </g>
</svg>
