<?xml version="1.0" encoding="UTF-8" standalone="no"?><!DOCTYPE svg PUBLIC "-//W3C//DTD SVG 1.1//EN" "http://www.w3.org/Graphics/SVG/1.1/DTD/svg11.dtd"><svg width="100%" height="100%" viewBox="0 0 2217 2050" version="1.1" xmlns="http://www.w3.org/2000/svg" xmlns:xlink="http://www.w3.org/1999/xlink" xml:space="preserve" xmlns:serif="http://www.serif.com/" style="fill-rule:evenodd;clip-rule:evenodd;stroke-linejoin:round;stroke-miterlimit:2;"><path d="M2216.29,222.529l-0.001,1602.21c0.001,122.816 -99.712,222.529 -222.529,222.529l-1771.23,-0c-122.816,-0 -222.529,-99.713 -222.529,-222.529l0,-1602.21c0,-122.817 99.713,-222.529 222.529,-222.529l1771.23,-0c122.817,-0 222.53,99.712 222.53,222.529Z" style="fill:#fff3f3;"/><g><g><g><g><path d="M948.196,150.567c-25.458,11.55 -52.808,16.737 -79.921,22.162c-27.817,5.421 -55.167,12.259 -81.333,22.629c-21.688,8.725 -43.38,18.155 -58.938,36.305c-14.617,16.975 -25.696,37.012 -43.379,50.925c-0.471,0.237 -0.708,0.704 -0.708,1.179c-0.942,0.471 -1.884,0.941 -2.825,1.412c-0.709,0.471 -1.179,0.946 -1.417,1.65c-43.85,20.038 -82.042,54.929 -115.046,88.642c-37.958,39.137 -73.083,81.571 -105.383,125.187c-4.946,6.838 -9.9,13.671 -14.85,20.509c3.771,-8.25 7.546,-16.738 10.846,-25.225c12.021,-30.175 20.508,-62.004 24.754,-94.063c4.479,-32.3 1.883,-63.654 2.358,-95.954c0.234,-18.621 2.825,-36.775 7.779,-54.692c3.771,-14.616 12.496,-30.412 13.2,-45.266c0,-0.471 -0.237,-0.704 -0.47,-0.942c0.233,-0.942 -0.946,-1.883 -1.888,-1.179c-25.933,20.275 -49.979,41.967 -64.358,72.142c-14.146,29.937 -24.754,65.066 -29,97.837c-5.184,38.192 0.708,76.383 2.596,114.575c0.941,17.917 1.179,35.833 -0.709,53.75c-1.887,18.388 -8.012,34.183 -13.204,51.392c-38.192,62.241 -70.958,128.25 -93.592,196.854c-4.712,14.379 -9.191,28.758 -12.966,43.375c-0.471,-4.713 -0.704,-9.192 -1.413,-13.671c-3.3,-25.462 -10.608,-50.45 -21.454,-73.792c-1.179,-2.591 -2.592,-5.183 -4.008,-7.779c-0,-0.471 -0.238,-1.179 -0.238,-1.65c1.417,-8.487 -2.121,-18.387 -1.412,-27.346c0.946,-13.437 4.716,-26.875 11.083,-38.9c10.371,-19.566 30.646,-31.591 38.658,-52.1c9.671,4.95 22.163,0.705 30.888,-4.479c9.429,-5.658 15.558,-15.558 13.2,-26.875c-2.358,-11.554 -13.908,-20.275 -25.225,-20.983c-11.788,-0.708 -21.454,8.017 -25.696,18.387c-4.008,10.138 -4.717,25.463 4.713,33.009c-6.6,13.2 -19.33,20.741 -28.996,31.116c-8.25,8.959 -14.854,19.805 -19.567,31.117c-1.179,3.067 -2.358,6.367 -3.3,9.671c0.942,-11.317 3.063,-22.633 4.95,-33.713c4.242,-25.229 6.129,-50.687 2.592,-75.916c0.237,-0.234 0.471,-0.704 0.471,-1.175c10.845,-4.717 22.633,-11.788 27.35,-23.342c4.241,-10.371 2.591,-22.633 -4.246,-31.592c-3.3,-4.241 -7.779,-8.012 -12.967,-9.9c-4.712,-1.65 -11.55,-2.358 -15.796,0.709c-4.712,3.3 -7.304,8.958 -9.191,14.145c-2.359,6.601 -4.246,13.909 -4.717,20.98c-0.942,12.495 4.008,26.875 17.208,30.65c-0.704,14.616 0,29.466 -1.412,44.083c-1.413,16.742 -5.421,33.004 -8.25,49.508c-2.121,12.025 -4.479,27.821 -3.538,42.2c-20.746,-32.533 -45.5,-62.708 -55.871,-100.429c2.121,-5.896 3.063,-12.262 4.713,-18.387c1.417,-5.659 3.771,-11.554 3.304,-17.684c-0.712,-10.846 -11.317,-18.154 -21.221,-20.037c-10.371,-1.888 -19.329,3.3 -23.337,12.966c-4.009,9.9 -1.417,20.509 4.479,29.234c6.129,8.958 16.971,19.8 28.996,16.029c4.246,28.762 18.625,53.042 33.946,77.092c-29.7,-12.496 -55.4,-30.175 -82.275,-48.329c-0,-0.709 -0.471,-1.417 -1.18,-1.65c-0.233,-0 -0.47,-0 -0.47,-0.238c-2.359,-6.129 -1.884,-12.729 -2.83,-19.329c-0.708,-5.425 -2.591,-10.375 -5.891,-14.617c-6.367,-8.017 -17.45,-12.496 -27.35,-9.433c-9.429,2.833 -16.975,12.025 -17.679,21.691c-0.709,11.08 6.362,23.813 15.558,29.938c5.187,3.537 12.021,4.954 18.387,3.3c6.367,-1.646 12.496,-10.138 19.567,-7.779l0.475,-0c24.046,24.754 57.288,41.966 89.346,54.462c7.075,11.317 14.383,22.396 20.512,34.179c12.021,23.109 20.513,48.096 24.992,73.792c0.233,0.946 0.233,1.888 0.471,2.829c-1.417,-2.12 -2.829,-4.004 -4.246,-5.891c-6.6,-10.138 -13.437,-19.804 -21.454,-28.763c-13.438,-15.087 -30.175,-26.875 -50.683,-29.471l-0,-0.233c0.233,-11.083 -0,-22.867 -6.838,-32.062c-2.829,-3.775 -6.604,-6.838 -11.083,-8.488c-4.946,-1.65 -11.55,-2.592 -16.5,-0.942c-9.667,3.063 -14.146,15.792 -12.496,24.988c0.475,2.596 1.65,4.954 2.829,7.546c1.417,3.062 0.946,5.891 0.946,9.191c-0,4.717 2.592,8.488 6.362,10.846c11.317,6.838 24.284,-3.067 34.892,-7.071c0.942,-0.475 1.417,-1.179 1.417,-1.887c22.629,5.891 39.604,20.746 53.041,39.371c5.659,7.779 10.846,16.029 16.03,24.283c3.304,5.183 6.366,11.079 10.137,16.267c0.475,6.366 0.946,12.729 0.946,19.095c0.233,9.9 -1.888,21.217 -0.471,31.117c-2.829,14.146 -5.187,28.292 -7.308,42.438c-1.888,14.141 -5.425,28.758 -1.65,42.908c1.179,4.242 8.016,5.892 10.137,1.412c4.95,-11.083 5.184,-22.162 6.838,-34.183c1.883,-14.146 4.004,-28.292 6.833,-42.437c2.358,-12.492 5.188,-24.988 8.25,-37.484c39.846,0 76.858,-13.2 108.683,-37.012c18.155,-13.438 34.892,-26.875 56.817,-33.475c19.333,-5.659 39.371,-7.075 58.229,-15.092c62.004,-26.4 86.992,-99.958 148.525,-128.246c1.884,-0.946 0.471,-4.246 -1.417,-3.537c-41.254,15.087 -86.754,19.566 -129.895,26.641c-37.959,6.13 -75.913,14.617 -111.275,30.413c-54.93,24.754 -94.3,72.371 -120.471,125.887c0.471,-1.412 0.708,-2.829 1.179,-4.241c15.325,-51.396 34.892,-102.317 58.937,-150.413c12.73,-25.458 26.405,-50.683 41.259,-75.204c8.016,-4.946 14.141,-13.2 21.216,-19.096c9.43,-8.012 19.8,-15.321 30.413,-21.921c8.25,-5.187 16.737,-9.904 25.458,-14.383c8.254,0.471 16.271,0.471 24.521,0.946c0.942,0.467 1.888,0.942 3.063,1.413c2.358,1.412 4.95,2.829 7.075,4.712c3.533,2.833 7.07,6.133 10.608,9.196c-0.238,0.475 -0.471,0.708 -0.708,1.179c-1.413,0.942 -2.592,2.358 -3.771,3.537c-5.188,5.184 -6.6,14.617 -3.775,21.455c3.775,8.958 15.796,13.437 23.575,6.837c8.254,-6.837 8.725,-21.221 2.596,-29.471c-2.596,-3.775 -6.838,-8.016 -11.788,-7.541c-1.179,0.233 -2.358,0.466 -3.537,1.175c-3.063,-4.009 -6.367,-7.542 -10.138,-10.609c0.946,0.238 1.888,0.238 2.829,0.471c12.496,2.829 24.517,6.838 36.779,10.375c-0.237,0.471 -0.708,0.708 -0.945,1.179c-0.471,0.709 -1.413,1.888 -1.646,3.063c-2.834,6.837 -0.475,15.325 6.125,19.333c8.016,4.713 18.625,1.179 22.871,-6.837c3.77,-6.838 3.537,-20.275 -4.48,-24.284c-5.42,-2.591 -17.916,-1.65 -20.75,4.717c-18.15,-8.254 -41.958,-18.625 -63.65,-18.392c8.488,-4.004 17.213,-8.012 25.696,-11.783c12.496,-5.658 25.225,-10.846 37.954,-16.504c8.492,3.067 18.392,2.592 27.113,3.067c13.438,0.704 26.875,1.645 40.079,0.941c20.275,4.242 34.654,22.159 54.929,26.638c-0.233,0.708 -0.233,1.416 0,1.887c-4.008,11.788 -0.941,23.342 11.788,28.525c10.846,4.479 30.412,3.3 37.25,-7.779c6.129,-10.137 0.471,-28.292 -10.375,-33.242c-11.55,-5.42 -27.346,-0.708 -36.304,7.784c-8.959,-5.896 -18.863,-10.138 -28.054,-16.034c-4.95,-3.3 -9.905,-6.6 -15.088,-9.195c16.029,-2.121 33.004,-6.838 45.029,-16.975c1.65,9.195 14.617,12.025 23.1,11.316c4.717,-0.471 11.083,-0.941 14.15,-5.183c3.533,-4.717 5.421,-12.258 4.479,-17.917c-1.654,-9.904 -11.791,-21.216 -22.4,-19.804c-13.2,1.65 -20.746,15.796 -20.746,28.054c-9.9,4.95 -19.566,9.667 -30.412,12.259c-11.55,2.591 -23.1,3.066 -34.892,3.066c-11.079,0 -21.921,-0.708 -33.004,-1.416c-4.712,-0.238 -9.667,-0.942 -14.617,-1.18c5.659,-2.591 11.317,-5.183 16.975,-7.779c0.946,0.238 2.121,0 3.067,-0.941c0.233,-0.238 0.471,-0.475 0.471,-0.709c20.983,-10.137 41.021,-21.925 58.7,-36.779c4.954,7.779 28.996,-0.704 33.95,-3.771c12.021,-7.546 18.387,-27.346 8.721,-39.133c-10.138,-12.496 -27.346,-6.129 -36.775,4.008c-6.134,6.6 -14.854,26.875 -6.838,35.363c-16.266,11.079 -33.475,20.275 -50.687,28.762c3.537,-8.958 5.187,-19.333 8.016,-28.291c5.184,-17.213 12.021,-33.005 22.159,-47.621c-0,-0 0.237,-0 0.237,0.233c0.471,0.475 0.709,0.708 1.179,1.179c9.667,7.309 29.938,-2.829 32.534,-13.675c1.883,-6.833 -0.942,-15.321 -5.188,-20.979c-4.241,-5.896 -12.491,-6.367 -18.858,-4.008c-6.367,2.358 -10.375,6.837 -12.496,12.258c-3.067,5.896 -2.592,15.088 0.233,21.221c0,0.233 0,0.233 0.238,0.467c-10.608,10.137 -17.208,22.87 -22.158,36.545c-2.83,7.78 -5.188,15.796 -7.313,23.809c-2.121,8.016 -3.767,16.975 -8.483,23.812c-26.875,12.492 -54.225,23.104 -82.042,34.421c-22.162,9.192 -43.612,19.8 -63.654,32.767c-7.071,4.716 -14.146,9.666 -20.746,15.087c35.833,-55.637 76.383,-108.679 119.763,-157.95c11.787,-13.437 24.045,-26.641 36.779,-39.137c14.141,-5.892 28.521,-10.846 43.612,-12.967c16.029,-2.358 31.825,-1.179 47.854,0.708c32.067,3.3 64.363,8.017 96.659,6.838c29.708,-0.946 58.704,-6.604 85.579,-19.804c27.583,-13.438 53.279,-30.884 80.862,-44.792c0.471,0.238 0.709,0.238 1.18,0.238c0.47,-0 0.708,-0.238 1.179,-0.475c0.471,-0.234 0.704,-0.471 0.941,-0.705c0.475,-0.475 0.709,-1.179 0.475,-1.887c0.705,-0.708 0.705,-2.358 -0.712,-2.592c-32.296,-7.312 -67.892,-6.837 -100.9,-6.133c-33.238,0.708 -66.717,3.775 -99.25,10.137c-29.704,5.659 -58.7,14.384 -86.521,26.171c-13.671,5.892 -27.112,12.259 -40.079,19.567c-2.592,1.412 -5.421,3.067 -8.25,4.479c1.65,-1.412 3.067,-2.829 4.717,-4.008c20.983,-17.917 43.845,-32.296 67.42,-46.209c0.475,0 0.946,0 1.18,-0.233c24.283,-10.608 52.341,-8.958 77.8,-15.796c13.437,-3.771 26.17,-9.666 39.37,-13.908c12.967,-4.246 25.934,-7.308 39.134,-10.846c22.396,-6.129 41.729,-20.275 58.941,-35.6c9.425,-8.25 18.15,-17.208 26.4,-26.637c8.725,-10.138 15.796,-22.396 26.642,-30.65c3.3,-3.538 0.233,-8.959 -4.008,-7.071Zm-641.479,439.675c2.358,-9.196 9.433,-17.917 19.566,-18.625c9.904,-0.709 18.625,6.366 22.4,15.087c1.884,4.009 2.354,8.254 0.704,12.496c-1.412,4.242 -4.716,7.546 -8.016,10.375c-8.013,6.129 -20.979,11.55 -30.646,6.363l-0.233,-0c-6.838,-6.13 -5.896,-17.917 -3.775,-25.696Zm-57.992,-37.25c-0,-6.363 1.175,-12.492 2.825,-18.388c1.417,-5.187 2.829,-11.079 6.133,-15.325c1.646,-2.358 4.242,-4.241 7.071,-4.479c3.067,-0.233 5.892,1.179 8.721,2.358c4.008,1.888 8.017,4.48 11.083,7.78c6.838,7.545 8.484,18.154 5.184,27.82c-4.242,11.788 -15.796,17.917 -26.167,23.809c-10.138,-3.063 -14.85,-13.671 -14.85,-23.575Zm-58.467,60.354l-0.946,-0c-8.958,2.592 -17.445,-5.658 -22.395,-12.258c-5.188,-6.838 -8.725,-15.796 -6.13,-24.521c2.359,-8.013 9.196,-13.671 17.68,-12.729c9.195,0.945 19.333,7.779 19.57,17.683c0.471,11.079 -5.425,21.217 -7.779,31.825Zm-63.183,34.892c-4.717,3.3 -9.196,5.891 -15.088,4.95c-10.845,-1.884 -18.154,-12.259 -20.983,-22.396c-2.592,-9.9 1.888,-19.567 11.079,-23.813c8.725,-4.004 18.625,-1.412 24.992,5.425c4.242,4.479 5.896,9.667 6.6,15.559c0.475,5.658 0.708,11.079 2.358,16.504c-3.062,0.233 -6.129,1.883 -8.958,3.771Zm42.2,110.095c-3.771,-0.47 -7.779,-3.066 -8.725,-6.837c-0.471,-2.358 -0,-4.713 -0,-7.071c-0,-2.358 -0.704,-4.479 -1.65,-6.6c-2.121,-4.717 -2.829,-8.962 -1.413,-13.912c1.18,-3.771 3.063,-7.78 6.363,-9.9c3.775,-2.359 9.196,-1.65 13.204,-0.942c4.246,0.942 7.779,2.825 10.608,5.892c7.309,8.016 7.309,20.037 7.546,30.175c-8.487,2.829 -16.266,10.608 -25.933,9.195Zm194.258,9.43c-12.258,8.487 -23.104,18.858 -32.3,30.412c-4.712,6.129 -8.958,12.496 -13.2,19.096c-0.237,0.471 -0.708,1.179 -0.941,1.65c9.9,-18.625 19.8,-36.779 32.766,-53.75c24.046,-31.825 54.934,-55.875 91.946,-71.196c35.125,-14.617 73.083,-21.221 110.329,-27.35c34.184,-5.658 67.425,-11.55 100.667,-20.512c-47.858,28.766 -73.788,86.054 -125.654,110.57c-18.392,8.721 -39.134,12.967 -58.229,19.334c-18.392,6.125 -33.95,14.616 -49.509,25.696c-16.975,12.02 -33.95,23.808 -53.987,30.645c-12.259,4.246 -24.754,6.838 -37.721,8.488c0.942,-0.471 1.887,-0.708 2.829,-1.179c9.663,-4.242 18.154,-10.375 24.988,-18.388c1.179,-1.416 -0.709,-3.304 -2.121,-2.125c-7.309,6.604 -15.796,12.025 -24.754,15.796c-3.534,1.417 -7.309,2.596 -10.846,3.538c4.954,-6.13 9.433,-12.496 14.383,-18.625c10.846,-13.2 23.338,-24.517 36.542,-34.888c0.941,-0.708 -0.238,-2.596 -1.417,-1.887c-13.675,9.191 -25.696,20.745 -36.775,33.004c-5.187,5.896 -10.137,12.258 -15.092,18.387c-1.645,1.888 -3.3,3.771 -4.945,5.659c-0.709,0.237 -1.655,0.237 -2.359,0.47c4.95,-5.891 8.484,-13.2 12.496,-19.8c4.004,-6.6 8.25,-13.437 12.963,-19.57c8.958,-12.021 19.57,-22.63 31.591,-31.825c0.471,-0.709 -0.708,-2.121 -1.65,-1.65Zm171.629,-211.705c3.534,-0.945 6.363,-3.77 10.605,-0.47c1.887,1.412 3.537,4.95 4.245,7.07c1.888,6.605 -1.412,17.684 -9.191,17.921c-8.254,0.467 -11.554,-8.491 -9.904,-15.329c0.233,-1.175 0.708,-2.121 1.179,-3.062c0.941,-1.18 1.412,-2.592 2.121,-4.009c0.237,-0.941 0.708,-1.412 0.945,-2.121Zm32.059,-1.179c0.941,-0.708 1.654,-2.358 2.121,-3.3c0.237,-0.233 0.475,-0.471 0.708,-0.946c0.471,0 0.946,0 1.65,-0.233c3.775,-1.887 7.546,-3.533 11.792,-3.533c8.958,0.233 8.483,11.783 4.479,17.208c-4.013,5.421 -12.263,7.071 -17.45,2.121c-3.771,-3.067 -3.534,-7.308 -3.3,-11.317Zm127.308,-23.808c6.363,-4.479 14.617,-10.138 22.396,-9.667c10.842,0.709 18.858,12.259 17.917,22.629c-0.942,12.259 -18.392,13.438 -27.35,11.317c-12.492,-3.062 -14.142,-13.2 -12.963,-24.279Zm15.088,-70.963c8.012,-3.537 16.266,4.95 18.858,11.788c1.417,3.771 1.179,8.012 -0.233,11.787c-1.888,4.95 -4.009,5.659 -9.434,6.13c-7.779,0.708 -16.5,-0.234 -19.8,-7.78c-0.237,-7.783 3.063,-18.625 10.609,-21.925Zm-43.142,-46.445c5.892,-9.9 18.15,-13.2 27.346,-4.95c8.725,7.783 4.95,23.104 -4.009,28.762c-4.241,2.596 -19.804,9.429 -25.225,5.188c-0.233,-0.471 -0.47,-0.946 -0.945,-1.413c-0.234,-0.237 -0.942,-0.946 -1.175,-1.179c-4.95,-5.658 0.941,-21.454 4.008,-26.408Zm-21.692,-44.792c8.959,-8.483 21.454,1.179 20.038,12.258c-0.704,4.479 -3.534,7.313 -7.304,9.434c-1.655,0.941 -3.538,1.65 -5.188,2.12c-4.008,1.18 -6.604,1.884 -9.667,-1.416c-0.708,-0.942 -1.416,-1.65 -1.883,-2.825c-1.417,-6.604 -1.417,-14.384 4.004,-19.571Zm-228.912,191.667c-0,0.47 -0.238,0.708 -0.238,1.179c-0.941,1.887 -1.883,3.771 -2.591,5.658c-0.471,0.708 -0.946,1.65 -1.65,2.354c1.179,-4.712 2.12,-9.662 3.062,-14.379l0.238,0c0.47,-0.471 0.941,-0.942 1.416,-1.412c-0.475,2.12 -0.475,4.479 -0.237,6.6Zm15.558,-26.642c-3.062,5.896 -6.837,12.025 -10.375,18.154c0.475,-2.121 1.179,-4.008 1.654,-5.896c3.063,-4.004 5.892,-8.25 8.484,-12.491c2.125,-3.771 4.245,-7.546 6.133,-11.55c-1.888,3.77 -3.775,7.779 -5.896,11.783Zm22.158,-125.183c-0.941,21.454 -2.591,42.908 -5.42,64.125c-2.825,19.333 -7.071,38.429 -16.5,55.637c-1.888,3.3 -3.775,6.367 -5.896,9.429c0.237,-0.708 0.475,-1.175 0.708,-1.887c4.713,-13.2 9.667,-26.4 12.496,-40.075c2.829,-14.146 4.242,-28.525 4.95,-42.909c0.704,-14.85 1.417,-29.937 1.883,-45.029c0.709,-17.208 1.417,-34.416 1.888,-51.629c-0,-0.942 -1.65,-0.942 -1.65,0c-1.884,30.413 -3.063,61.063 -5.421,91.475c-0.942,14.85 -2.358,29.704 -5.188,44.083c-1.887,9.905 -4.712,19.096 -7.779,28.525l0,-0.233c0.942,-4.95 1.179,-9.904 1.65,-14.854c1.417,-21.688 0.942,-43.142 -0.471,-64.833c0,-1.413 -2.125,-1.413 -2.125,-0c1.18,21.691 0.946,43.616 -0.466,65.304c-0.238,5.425 -0.713,10.846 -1.888,16.271c-1.179,5.183 -3.066,9.9 -4.716,14.85c-1.413,4.008 -2.359,8.487 -3.067,12.966c-0.467,0.471 -0.942,1.179 -1.413,1.65c2.359,-16.029 2.592,-32.533 2.359,-46.916c-0.471,-36.775 -6.367,-73.55 -4.717,-110.563c1.65,-36.071 11.317,-73.558 24.521,-107.271c12.496,-31.825 34.892,-54.458 59.646,-76.854c-5.896,10.375 -8.959,24.046 -12.025,34.892c-4.009,13.908 -6.838,28.054 -8.25,42.437c-3.3,34.179 1.883,68.367 -1.888,102.784c-3.537,32.77 -11.787,64.833 -23.104,95.716c-3.537,9.429 -7.308,18.859 -11.317,28.054c0.942,-2.12 1.65,-4.241 2.359,-6.362c6.837,-19.804 8.721,-41.258 10.608,-62.004c0.946,-12.496 1.65,-25.225 1.65,-37.721c0,-0 -1.417,-0 -1.417,0.942Zm159.371,-62.238c3.3,-0.942 6.838,-1.883 10.138,-2.592c7.071,-1.416 14.146,-2.358 21.216,-3.066c13.675,-1.179 27.346,-1.413 41.021,-1.884c1.417,0 1.417,-2.12 0,-2.12c-14.146,-0.475 -28.054,-0.238 -42.2,0.941c-3.533,0.234 -7.308,0.704 -10.846,1.179c0.475,-0.237 0.709,-0.237 1.18,-0.475c8.254,-2.358 16.737,-4.479 25.229,-5.891c17.208,-3.3 34.654,-5.659 52.1,-8.25c9.9,-1.417 20.037,-3.067 29.704,-5.425c1.179,-0.234 0.704,-1.888 -0.475,-1.65c-17.679,3.3 -35.596,5.421 -53.513,7.546c-17.445,2.12 -34.654,4.479 -51.629,9.429c-0.471,-0 -0.708,0.237 -1.179,0.237c1.883,-0.946 3.538,-1.887 5.421,-2.833c1.417,-0.467 3.067,-0.942 4.479,-1.175c4.954,-1.179 9.904,-2.125 14.854,-3.304c9.9,-2.121 19.8,-4.713 29.234,-8.721c1.179,-0.471 0.237,-2.358 -0.709,-1.883c-9.666,3.3 -19.804,5.891 -29.704,8.012c-1.883,0.471 -4.008,0.946 -5.896,1.179c3.775,-1.65 7.546,-3.3 11.554,-4.95c26.875,-10.375 55.167,-18.625 83.925,-24.283c32.3,-6.367 64.6,-9.429 97.605,-9.9c31.116,-0.708 62,3.062 93.12,3.062c-27.345,8.488 -50.92,25.7 -76.616,38.192c-31.592,15.325 -65.071,20.746 -99.963,20.513c-32.766,-0.238 -65.3,-4.246 -98.071,-6.367c-17.212,-1.179 -34.891,0.471 -51.391,5.421c0.466,-0.234 0.941,-0.471 1.412,-0.942Zm286.671,-145.458c-20.037,18.387 -43.612,35.362 -69.779,43.85c-12.496,4.008 -24.754,7.308 -37.017,11.787c-12.729,4.95 -25.929,9.196 -39.366,11.788c-19.567,3.537 -38.663,4.716 -57.288,10.608c0.471,-0.471 0.942,-0.942 1.413,-1.412c18.391,-6.367 37.72,-9.667 56.816,-13.675c1.413,-0.234 0.709,-2.359 -0.471,-2.121c-11.079,2.121 -22.158,4.008 -33.241,6.129c-4.246,0.942 -8.725,1.65 -12.967,2.829c5.421,-3.067 11.079,-5.892 16.738,-8.487c14.145,-6.6 28.291,-13.2 42.437,-20.038c1.179,-0.475 0.233,-2.121 -0.946,-1.654c-15.083,6.604 -29.937,13.442 -45.029,20.275c-4.479,2.125 -8.958,3.775 -13.671,5.658c0.234,-0.233 0.709,-0.704 0.942,-0.941c2.358,-2.592 5.187,-4.95 8.017,-7.071c5.658,-4.009 11.787,-7.546 18.387,-9.667c1.179,-0.471 0.708,-2.358 -0.471,-1.887c-6.366,1.65 -12.258,4.245 -17.683,7.783c3.775,-5.192 7.546,-10.375 11.792,-15.325c18.15,-21.925 44.083,-32.771 70.25,-42.2c43.383,-15.558 90.766,-17.446 134.145,-32.533c-11.079,11.787 -20.983,25.225 -33.008,36.304Z" style="fill:#a3004c;stroke:#a3004c;stroke-width:4.17px;"/></g><g><path d="M581.838,675.583c-20.746,8.721 -43.375,11.788 -64.596,19.096c-10.371,3.538 -20.509,7.779 -30.175,12.496c-4.95,2.358 -10.371,4.242 -14.85,7.304c-4.954,3.304 -10.375,5.425 -15.563,8.254c-1.179,0.704 -0.233,2.121 0.946,1.65c5.183,-2.591 10.138,-6.129 15.796,-7.779c2.354,-0.708 4.712,-2.358 6.833,-3.3c2.592,-1.179 5.188,-2.596 8.017,-3.771c10.371,-4.954 20.983,-9.433 31.591,-13.204c20.746,-7.071 43.142,-9.196 62.942,-18.862c1.417,-0.705 0.238,-2.359 -0.942,-1.884Z" style="fill:#a3004c;stroke:#a3004c;stroke-width:4.17px;"/></g><g><path d="M450.054,726.983c-1.887,0.942 -3.537,1.884 -5.425,2.829c-0.941,0.471 -1.646,0.942 -2.591,1.413c-0.471,0.237 -0.709,0.708 -1.18,0.942c-0.47,0.237 -0.941,0.475 -1.175,0.946c0,0.233 0,0.47 0.234,0.47c0.471,0 0.941,-0.237 1.412,-0.471c0.475,-0.237 0.946,-0.237 1.417,-0.47c0.942,-0.475 1.883,-0.709 2.829,-1.179c1.888,-0.942 3.771,-1.888 5.658,-2.83c1.18,-0.47 0.234,-2.358 -1.179,-1.65Z" style="fill:#a3004c;stroke:#a3004c;stroke-width:4.17px;"/></g><g><path d="M431.667,735.463c-2.83,1.416 -5.659,3.537 -8.255,5.425c-2.591,1.883 -5.42,4.004 -8.016,5.891c-2.592,1.888 -5.184,3.771 -7.779,5.659c-1.413,0.941 -2.825,1.887 -4.005,3.062c-0.945,0.708 -2.358,1.417 -2.595,2.829c-0,0.475 0.237,0.709 0.475,0.709c1.412,-0 2.354,-0.942 3.533,-1.65c1.412,-0.942 2.829,-2.121 4.008,-3.063c2.596,-1.887 5.421,-3.775 8.017,-5.658c2.592,-1.888 5.183,-3.538 8.017,-5.188c2.825,-1.65 5.658,-3.537 8.25,-5.658c1.175,-1.179 -0.471,-3.067 -1.65,-2.358Z" style="fill:#a3004c;stroke:#a3004c;stroke-width:4.17px;"/></g><g><path d="M394.888,760.221c-3.534,2.596 -7.071,5.187 -10.609,7.779l-5.187,3.775c-1.65,1.179 -3.771,2.592 -5.188,4.004c-0.942,0.942 0.238,2.359 1.179,1.654c1.888,-0.945 3.538,-2.595 4.954,-3.775c1.65,-1.416 3.534,-2.829 5.184,-4.241c3.537,-2.83 6.837,-5.425 10.375,-8.255c0.941,-0.233 -0,-1.649 -0.709,-0.941Z" style="fill:#a3004c;stroke:#a3004c;stroke-width:4.17px;"/></g><g><path d="M455.713,701.042c-12.496,4.716 -24.521,10.375 -36.071,17.212c-11.317,6.6 -23.105,14.146 -32.063,23.813c-0.704,0.704 0.238,1.883 0.942,1.412c5.187,-3.771 10.137,-7.779 15.325,-11.55c5.425,-3.775 10.846,-7.546 16.504,-10.846c11.317,-6.837 23.337,-12.729 35.833,-17.446c1.65,-0.708 1.179,-3.062 -0.471,-2.595Z" style="fill:#a3004c;stroke:#a3004c;stroke-width:4.17px;"/></g><g><path d="M379.092,750.317c-0.709,0.941 -1.413,1.65 -2.354,2.591c-0.709,0.942 -3.538,4.717 -4.246,5.659c-0.471,0.941 -1.18,1.887 -1.413,2.829c0,0.237 0.233,0.471 0.471,0.237c0.942,-0.47 1.65,-1.179 2.354,-1.887c0.709,-0.942 1.654,-1.65 2.358,-2.596c0.709,-0.942 3.538,-4.712 4.246,-5.654c0.234,-0.946 -0.945,-1.888 -1.416,-1.179Z" style="fill:#a3004c;stroke:#a3004c;stroke-width:4.17px;"/></g><g><path d="M508.283,734.521c-6.129,4.246 -12.491,8.016 -19.095,11.317c-3.3,1.649 -6.6,3.299 -9.9,4.712c-3.067,1.417 -6.838,2.125 -9.43,4.717c-0.475,0.475 0,1.179 0.471,1.179c3.3,0.237 6.6,-1.884 9.667,-3.063c3.537,-1.654 6.837,-3.3 10.137,-4.954c6.6,-3.537 12.963,-7.542 19.096,-11.783c1.179,-0.946 0.233,-2.834 -0.946,-2.125Z" style="fill:#a3004c;stroke:#a3004c;stroke-width:4.17px;"/></g><g><path d="M461.604,760.217c-14.616,5.187 -29.937,9.666 -44.083,16.266c-6.838,3.3 -13.438,7.309 -20.042,11.555c-3.3,2.12 -6.6,4.479 -9.9,6.6c-2.591,1.883 -6.129,3.77 -8.017,6.362c-0.47,0.708 0.238,1.417 0.946,1.417c3.3,-0.942 6.13,-3.538 8.959,-5.421c3.066,-2.125 6.129,-4.246 9.191,-6.367c6.134,-4.246 12.734,-8.25 19.334,-11.787c13.908,-7.309 28.996,-11.788 43.85,-16.738c1.65,-0.471 0.941,-2.358 -0.238,-1.887Z" style="fill:#a3004c;stroke:#a3004c;stroke-width:4.17px;"/></g><g><path d="M368.483,809.254c-0.47,-0.471 -1.179,-0.471 -1.65,0c-1.412,1.179 -2.829,2.121 -4.245,3.063c-0.705,0.475 -1.413,0.946 -2.121,1.416c-0.471,0.238 -1.18,0.709 -1.413,1.18l0,0.237l-0.233,0.233c-0,0.238 -0.238,0.471 -0.238,0.709c-0.237,0.237 0.238,0.708 0.471,0.708c0.233,0 0.471,0.233 0.471,0.233l0.471,0l-0.233,0l0.47,0c0.471,0 1.179,-0.47 1.65,-0.704c0.704,-0.475 1.65,-0.946 2.359,-1.416c1.65,-1.18 3.062,-2.359 4.241,-3.771c0.471,-0.709 0.471,-1.417 0,-1.888Z" style="fill:#a3004c;stroke:#a3004c;stroke-width:4.17px;"/></g><g><path d="M595.983,681.242c-7.779,4.716 -14.85,10.137 -22.866,14.616c-3.775,2.121 -7.779,4.242 -11.554,6.13c-4.005,1.887 -8.484,3.537 -12.259,5.658c-1.179,0.708 -0.471,2.592 0.942,2.121c4.246,-0.942 8.254,-3.063 12.025,-4.95c4.246,-1.884 8.25,-4.242 12.258,-6.363c8.017,-4.479 15.563,-9.671 22.4,-15.796c0.942,-0.708 0,-2.12 -0.946,-1.416Z" style="fill:#a3004c;stroke:#a3004c;stroke-width:4.17px;"/></g><g><path d="M542.467,713.546c-0.234,-0.475 -0.942,-0.713 -1.413,-0.475c-2.121,0.942 -4.246,2.121 -6.129,3.537c-0.942,0.704 -2.121,1.179 -2.829,2.121c-0.946,0.942 -1.65,1.65 -2.358,2.596c-0.234,0.233 0.233,0.704 0.47,0.467c0.942,-0.467 1.888,-1.175 3.067,-1.646c0.942,-0.475 1.887,-1.417 2.829,-1.888c1.883,-1.179 4.004,-2.358 6.129,-3.3c0.471,-0.237 0.471,-0.946 0.234,-1.412Z" style="fill:#a3004c;stroke:#a3004c;stroke-width:4.17px;"/></g><g><path d="M570.521,672.046c-12.021,3.537 -24.517,5.658 -36.775,7.308c-12.021,1.65 -24.517,2.121 -36.542,4.479c-0.941,0.238 -0.708,1.65 0.234,1.65c6.366,-0.237 12.733,-0.941 19.095,-1.65c6.367,-0.708 12.496,-1.416 18.863,-2.121c12.025,-1.649 24.046,-3.775 35.6,-7.545c1.179,-0.709 0.704,-2.592 -0.475,-2.121Z" style="fill:#a3004c;stroke:#a3004c;stroke-width:4.17px;"/></g><g><path d="M484.946,688.792c-4.009,0.704 -7.779,1.412 -11.55,2.825c-1.888,0.708 -3.538,1.654 -5.425,2.595c-1.65,0.942 -3.534,1.884 -4.479,3.3c-0.471,0.471 0.233,1.18 0.708,0.942c1.65,-0.237 3.3,-1.412 4.95,-2.358c1.65,-0.942 3.533,-1.646 5.188,-2.359c3.537,-1.645 7.07,-3.062 10.608,-4.004c0.942,0 0.708,-1.179 -0,-0.941Z" style="fill:#a3004c;stroke:#a3004c;stroke-width:4.17px;"/></g><g><path d="M473.396,242.979c-9.671,15.559 -15.325,33.004 -18.863,50.921c-1.65,8.958 -2.829,17.917 -3.771,26.875c-0.941,9.429 -2.358,18.863 -2.12,28.292c-0,0.708 1.412,0.941 1.412,0.233c1.413,-8.721 1.413,-17.679 2.359,-26.4c0.941,-9.433 2.12,-18.629 3.77,-27.821c3.3,-17.916 8.959,-35.6 18.388,-51.396c0.237,-0.704 -0.708,-1.179 -1.175,-0.704Z" style="fill:#a3004c;stroke:#a3004c;stroke-width:4.17px;"/></g><g><path d="M433.079,327.379c-3.067,12.025 -6.367,24.05 -7.308,36.542c-0.471,6.129 -0.704,12.258 -0.704,18.387c-0,6.134 -0.475,12.259 0.233,18.154c-0,0.471 0.946,0.471 0.946,0c0.941,-5.658 0.704,-11.316 0.941,-17.208c0,-6.129 0.234,-12.262 0.705,-18.387c0.945,-12.496 4.008,-24.992 6.6,-37.25c-0,-0.709 -1.175,-1.18 -1.413,-0.238Z" style="fill:#a3004c;stroke:#a3004c;stroke-width:4.17px;"/></g><g><path d="M426.95,425.213c-0.237,-1.413 -0.237,-2.83 -0.471,-4.242c-0.233,-2.829 -0.471,-5.425 -0.471,-8.25c0,-0.946 -1.65,-0.946 -1.65,-0c0,2.825 0,5.654 0.234,8.25c-0,1.412 0.237,2.592 0.475,4.008c0.233,1.179 0.466,2.825 1.179,4.004c0.233,0.238 0.942,0.238 0.942,-0.233c0.233,-0.946 -0,-2.358 -0.238,-3.537Z" style="fill:#a3004c;stroke:#a3004c;stroke-width:4.17px;"/></g><g><path d="M460.663,321.254c-0.709,13.438 -2.121,26.875 -4.009,40.075c-1.887,12.733 -4.712,25.463 -5.421,38.429c0,0.942 1.65,1.179 1.888,0.238c1.646,-6.367 2.354,-13.204 3.3,-19.571c0.942,-6.6 2.121,-13.2 3.062,-20.038c1.888,-12.962 2.829,-25.933 3.3,-39.133c0,-1.417 -1.883,-1.417 -2.12,0Z" style="fill:#a3004c;stroke:#a3004c;stroke-width:4.17px;"/></g><g><path d="M467.029,281.883c-0.946,4.717 -1.887,9.667 -3.304,14.38c-1.413,4.716 -3.063,9.433 -4.479,14.145c-0.233,0.946 1.179,1.65 1.654,0.709c2.121,-4.479 3.3,-9.196 4.712,-13.913c1.18,-4.946 2.359,-9.662 3.067,-14.616c0.238,-1.175 -1.416,-1.646 -1.65,-0.705Z" style="fill:#a3004c;stroke:#a3004c;stroke-width:4.17px;"/></g><g><path d="M858.138,299.563c-9.43,0.237 -18.859,1.416 -28.288,2.358c-9.196,0.946 -18.625,1.179 -27.821,1.887c-8.721,0.709 -17.208,2.121 -25.696,4.009c-8.958,2.121 -18.387,4.008 -27.112,6.837c-0.471,0.238 -0.471,0.704 -0,0.704c8.725,0.238 17.212,-2.825 25.462,-4.712c9.192,-2.121 18.388,-3.771 27.821,-4.717c9.192,-0.942 18.15,-1.887 27.346,-2.354c9.429,-0.475 18.858,-0.946 28.287,-2.125c1.18,0 1.417,-1.888 0,-1.888Z" style="fill:#a3004c;stroke:#a3004c;stroke-width:4.17px;"/></g><g><path d="M768.554,300.038c-11.316,-0 -22.633,3.77 -33.475,6.362l-17.212,4.008c-5.896,1.413 -12.021,2.359 -17.679,4.48c-0.946,0.237 -0.709,1.887 0.233,1.65c5.425,-0.705 10.846,-2.121 16.267,-3.538c5.658,-1.412 11.554,-2.592 17.212,-4.004c5.658,-1.417 11.55,-2.596 17.208,-4.008c5.659,-1.417 11.317,-3.067 17.209,-3.538c1.179,0.233 1.416,-1.412 0.237,-1.412Z" style="fill:#a3004c;stroke:#a3004c;stroke-width:4.17px;"/></g><g><path d="M801.558,328.796c-9.429,1.65 -18.858,3.062 -28.287,3.771c-9.196,0.708 -18.629,-0 -27.821,0.708c-1.179,0 -0.942,1.417 0,1.65c9.429,1.179 19.329,0.233 28.763,-0.708c9.195,-0.704 18.62,-1.884 27.816,-3.538c1.417,-0.233 0.942,-2.121 -0.471,-1.883Z" style="fill:#a3004c;stroke:#a3004c;stroke-width:4.17px;"/></g><g><path d="M737.904,333.983c-6.125,0 -12.021,0 -18.15,0.238c-3.066,-0 -6.129,0.233 -8.958,0.471c-2.829,0.237 -5.896,0.237 -8.488,1.179c-0.475,0.237 -0.475,0.942 0,1.179c2.592,0.704 5.659,0.471 8.488,0.471l8.958,-0c6.129,-0.233 12.025,-0.708 18.15,-0.946c1.417,-0.233 1.417,-2.592 0,-2.592Z" style="fill:#a3004c;stroke:#a3004c;stroke-width:4.17px;"/></g><g><path d="M840.696,314.179c-3.304,0.713 -6.604,1.417 -9.904,2.125c-1.65,0.234 -3.3,0.709 -4.713,1.179c-0.946,0.234 -1.654,0.709 -2.596,0.942c-0.704,0.233 -1.65,0.471 -2.358,0.708c-0.704,0.238 -0.233,1.413 0.475,1.413c0.942,-0 1.646,-0 2.592,-0.233c0.941,-0 1.65,-0 2.591,-0.238c1.65,-0.237 3.3,-0.471 4.717,-0.942c3.3,-0.941 6.6,-1.887 9.9,-2.829c0.942,-0.471 0.475,-2.358 -0.704,-2.125Z" style="fill:#a3004c;stroke:#a3004c;stroke-width:4.17px;"/></g><g><path d="M825.604,292.958c-8.721,0.238 -17.679,-0.708 -26.404,-0.941c-4.242,-0.238 -8.25,-0 -12.258,0.47c-3.534,0.471 -8.25,0.942 -11.079,3.3c-0.709,0.471 -0,1.65 0.708,1.65c3.771,-0.47 7.304,-2.12 11.079,-2.829c4.242,-0.704 8.721,-0.941 12.967,-0.941c4.241,-0 8.25,-0 12.258,0.237c4.246,0.233 8.488,-0.237 12.729,-0.708c0.238,0.233 0.238,-0.238 0,-0.238Z" style="fill:#a3004c;stroke:#a3004c;stroke-width:4.17px;"/></g><g><path d="M851.3,293.667c-3.3,-0.238 -6.6,-0.475 -9.9,-0.475c-1.65,-0 -3.3,-0 -4.95,0.237c-1.65,0 -3.3,0 -4.712,0.709c-0.713,0.233 -0.946,1.649 -0,1.887c1.645,0.233 3.3,0 4.712,0c1.65,0 3.3,-0.238 4.95,-0.238c3.3,0 6.6,-0.237 9.9,0c1.179,0 1.179,-1.887 0,-2.12Z" style="fill:#a3004c;stroke:#a3004c;stroke-width:4.17px;"/></g><g><path d="M857.433,310.642c-0.708,0.233 -1.416,0.471 -2.12,0.704c0.704,-0 1.412,-0.233 2.12,-0.704c0,0.233 0,-0 0,-0Z" style="fill:#a3004c;stroke:#a3004c;stroke-width:4.17px;"/></g><g><path d="M878.65,203.142c-16.504,8.25 -33.712,15.321 -51.158,20.979c-8.488,2.829 -17.209,5.187 -25.934,7.308c-8.958,2.125 -18.15,3.3 -26.875,5.896c-0.708,0.233 -0.708,1.65 0.234,1.413c8.958,-0.238 18.154,-2.592 26.879,-4.48c9.192,-2.12 18.15,-4.716 27.108,-7.541c17.684,-5.659 34.659,-12.967 51.163,-21.454c1.175,-0.709 -0,-2.596 -1.417,-2.121Z" style="fill:#a3004c;stroke:#a3004c;stroke-width:4.17px;"/></g><g><path d="M811.929,206.442c-11.079,8.016 -25.221,10.137 -37.716,15.321c-6.13,2.595 -12.025,5.424 -17.684,8.487c-5.891,3.304 -12.491,6.604 -16.737,11.788c-0.234,0.237 -0,0.941 0.471,0.708c6.129,-2.358 11.554,-6.838 17.212,-10.138c6.363,-3.533 12.729,-6.6 19.567,-9.429c12.025,-4.95 25.696,-7.308 36.304,-15.087c0.708,-0.709 -0.471,-2.592 -1.417,-1.65Z" style="fill:#a3004c;stroke:#a3004c;stroke-width:4.17px;"/></g><g><path d="M810.988,237.796c-7.78,3.304 -15.559,6.604 -23.338,9.671c-3.775,1.412 -7.546,3.062 -11.554,4.241c-4.004,1.413 -8.013,2.121 -11.55,4.242c-0.471,0.238 -0.234,1.179 0.233,1.179c4.246,0.238 8.254,-1.179 12.263,-2.591c4.008,-1.417 8.012,-2.83 11.787,-4.48c7.779,-3.304 15.321,-6.604 23.1,-10.137c1.417,-0.238 0.475,-2.592 -0.941,-2.125Z" style="fill:#a3004c;stroke:#a3004c;stroke-width:4.17px;"/></g><g><path d="M860.025,190.646c-6.6,2.358 -12.967,4.95 -19.329,7.779c-3.304,1.417 -6.367,3.063 -9.671,4.479c-2.825,1.417 -6.362,2.829 -8.958,4.95c-0.705,0.709 -0,1.65 0.946,1.417c1.649,-0.471 3.066,-1.179 4.479,-1.888c1.65,-0.708 3.3,-1.416 4.712,-2.358c3.067,-1.412 6.133,-2.829 8.958,-4.004c6.367,-2.833 12.734,-5.658 19.334,-8.017c1.417,-0.475 0.942,-2.829 -0.471,-2.358Z" style="fill:#a3004c;stroke:#a3004c;stroke-width:4.17px;"/></g><g><path d="M1398.61,1914.28c-68.662,16.125 -139.187,24.225 -210.887,24.225c-124.479,0 -244.946,-24.275 -358.579,-72.379c-109.625,-46.45 -208.171,-112.929 -292.804,-197.333c-84.634,-84.621 -151.117,-183.171 -197.321,-292.792c-48.096,-113.633 -72.375,-234.341 -72.375,-358.579c-0,-1.887 1.65,-3.537 3.533,-3.537c1.888,-0 3.538,1.65 3.538,3.537c-0,504.267 410.204,914.238 914.241,914.238c74.984,-0 147.888,-9.08 217.667,-26.184c-2.313,2.871 -4.65,5.813 -7.013,8.804Z" style="fill:#a3004c;stroke:#a3004c;stroke-width:4.17px;"/></g><g><path d="M992.608,132.983c68.667,-16.125 139.192,-24.225 210.892,-24.225c124.475,0 244.946,24.284 358.579,72.384c109.621,46.45 208.167,112.929 292.8,197.333c84.638,84.621 151.117,183.167 197.325,292.792c48.092,113.633 72.375,234.337 72.375,358.579c0,1.883 -1.65,3.537 -3.537,3.537c-1.884,0 -3.534,-1.654 -3.534,-3.537c0,-504.267 -410.208,-914.238 -914.245,-914.238c-74.984,0 -147.884,9.079 -217.663,26.184c2.308,-2.867 4.65,-5.809 7.008,-8.809Z" style="fill:#a3004c;stroke:#a3004c;stroke-width:4.17px;"/></g></g><g><path d="M1228.33,637.304c-25.546,40.638 -51.375,84.034 -77.504,130.175c-26.117,46.146 -53.688,91.288 -82.713,135.4c-29.025,44.117 -60.366,85.479 -94.041,124.084c-33.667,38.604 -70.817,70.383 -111.454,95.341c-35.409,22.067 -70.092,37.004 -104.05,44.846c-33.959,7.837 -65.459,11.758 -94.48,11.758c-34.245,0 -65.887,-3.633 -94.912,-10.887c-29.025,-7.259 -54.125,-18.142 -75.313,-32.654c-21.195,-14.517 -37.875,-32.363 -50.066,-53.55c-12.196,-21.192 -18.288,-45.713 -18.288,-73.58c0,-25.537 5.804,-50.5 17.413,-74.883c11.612,-24.379 27.862,-46.004 48.762,-64.862c20.9,-18.871 45.859,-33.967 74.884,-45.284c29.02,-11.321 60.954,-16.983 95.779,-16.983c27.866,-0 52.829,3.196 74.883,9.579c22.063,6.388 40.925,15.242 56.6,26.558c15.671,11.321 27.575,24.675 35.7,40.059c8.125,15.379 12.192,32.071 12.192,50.062c-0,22.063 -5.367,42.38 -16.113,60.955c-10.737,18.575 -24.958,34.683 -42.662,48.325c-17.709,13.641 -38.025,24.233 -60.954,31.783c-22.925,7.546 -46.292,11.321 -70.092,11.321c-9.288,-0 -19.158,-0.725 -29.608,-2.179c-10.45,-1.455 -20.021,-3.338 -28.73,-5.659c-8.708,-2.321 -15.966,-4.787 -21.77,-7.4c-5.809,-2.621 -8.709,-4.787 -8.709,-6.529c0,-2.904 1.454,-4.358 4.354,-4.358c1.738,-0 4.5,0.871 8.271,2.608c3.771,1.75 9.004,3.492 15.675,5.229c6.671,1.742 14.95,3.484 24.817,5.221c9.867,1.746 22.054,2.617 36.567,2.617c24.387,-0 47.312,-3.775 68.791,-11.317c21.479,-7.55 40.054,-17.417 55.725,-29.608c15.679,-12.188 28.013,-26.267 37.004,-42.234c9,-15.966 13.5,-32.645 13.5,-50.066c0,-14.513 -3.337,-28.15 -10.016,-40.925c-6.671,-12.771 -16.538,-23.946 -29.6,-33.525c-13.067,-9.571 -29.175,-17.121 -48.325,-22.638c-19.159,-5.516 -41.217,-8.271 -66.179,-8.271c-26.121,0 -52.821,4.505 -80.105,13.496c-27.283,9 -52.1,21.913 -74.45,38.75c-22.35,16.834 -40.629,37.004 -54.858,60.513c-14.225,23.508 -21.333,49.491 -21.333,77.933c-0,22.063 5.225,41.796 15.675,59.213c10.45,17.412 24.958,32.216 43.537,44.408c18.575,12.187 41.067,21.621 67.484,28.296c26.412,6.671 55.579,10.016 87.508,10.016c36.567,0 72.992,-5.083 109.279,-15.237c36.279,-10.163 72.704,-28.013 109.271,-53.554c36.575,-25.542 73.579,-59.788 111.021,-102.75c37.441,-42.95 75.321,-97.521 113.633,-163.692c21.475,-36.575 41.796,-71.404 60.946,-104.492c19.158,-33.087 36.138,-61.966 50.946,-86.641c14.796,-24.671 27.137,-44.404 37.004,-59.204c9.867,-14.805 15.967,-22.209 18.288,-22.209c2.316,0 4.208,0.875 5.662,2.613c1.442,1.741 2.171,2.904 2.171,3.487c-0,4.638 -1.884,10.45 -5.663,17.413c-3.766,6.966 -7.983,17.271 -12.616,30.912c-4.646,13.642 -8.855,31.196 -12.63,52.679c-3.774,21.48 -5.658,49.05 -5.658,82.717c0,16.254 0.579,32.221 1.738,47.892c1.158,15.675 1.741,31.637 1.741,47.891c0,44.117 -2.325,88.092 -6.971,131.917c-4.637,43.821 -12.762,86.925 -24.379,129.308l1.742,1.738c20.325,-39.475 42.237,-80.4 65.742,-122.775c23.508,-42.371 47.6,-83.738 72.275,-124.079c24.675,-40.346 49.775,-78.517 75.32,-114.5c25.534,-35.992 50.642,-67.484 75.313,-94.479c24.675,-26.992 48.471,-48.325 71.404,-63.996c22.925,-15.675 44.263,-23.513 63.996,-23.513c11.029,0 20.608,4.213 28.733,12.625c8.129,8.421 12.192,16.692 12.192,24.817c-0,8.125 -3.042,15.529 -9.142,22.208c-6.1,6.671 -14.371,10.009 -24.816,10.009c-9.284,-0 -15.821,-2.025 -19.588,-6.096c-3.775,-4.063 -6.533,-8.7 -8.271,-13.929c-1.746,-5.221 -3.346,-9.867 -4.791,-13.934c-1.45,-4.062 -4.788,-6.096 -10.017,-6.096c-23.796,0 -63.421,32.075 -118.858,96.217c-55.438,64.15 -120.884,163.85 -196.35,299.104c-24.375,43.534 -43.096,78.359 -56.163,104.488c-13.058,26.121 -22.783,46.146 -29.171,60.075c-6.383,13.937 -10.875,23.079 -13.496,27.429c-2.608,4.358 -5.658,6.537 -9.141,6.537c-1.154,0 -2.321,-0.295 -3.479,-0.879c-1.163,-0.575 -1.738,-2.029 -1.738,-4.35c0,-5.221 1.013,-9.725 3.038,-13.5c2.037,-3.766 4.358,-9.425 6.97,-16.979c2.613,-7.542 5.075,-17.992 7.4,-31.346c2.321,-13.346 3.488,-32.504 3.488,-57.462c-0,-31.934 -2.321,-64.292 -6.971,-97.092c-4.642,-32.8 -6.967,-63.708 -6.967,-92.729c0,-35.413 2.467,-66.183 7.4,-92.3c4.942,-26.121 10.45,-48.613 16.55,-67.483c6.096,-18.863 11.755,-34.542 16.975,-47.017c5.23,-12.483 8.421,-22.792 9.584,-30.917l-1.742,0Z" style="fill:#a3004c;fill-rule:nonzero;stroke:#a3004c;stroke-width:4.17px;"/></g><g><path d="M1935.81,1000.05c-0,-11.029 -2.617,-18.725 -7.838,-23.075c-5.229,-4.354 -13.062,-6.533 -23.512,-6.533c-18.58,-0 -39.621,6.971 -63.13,20.9c-23.508,13.929 -47.458,31.929 -71.833,53.983c-24.387,22.058 -48.179,47.025 -71.404,74.883c-23.221,27.867 -43.246,55.725 -60.083,83.592c12.191,-4.063 28.012,-9.283 47.454,-15.667c19.45,-6.387 40.204,-13.941 62.266,-22.65c22.055,-8.7 44.259,-18.716 66.613,-30.037c22.342,-11.317 42.512,-23.946 60.512,-37.875c17.996,-13.929 32.65,-29.025 43.967,-45.275c11.321,-16.254 16.988,-33.671 16.988,-52.246Zm-541.605,289.083c5.804,-3.483 16.838,-8.271 33.088,-14.37c16.262,-6.092 33.671,-12.476 52.246,-19.159c18.575,-6.671 36.279,-13.058 53.112,-19.15c16.838,-6.096 29.321,-10.6 37.446,-13.496c9.867,-13.354 22.496,-29.166 37.875,-47.454c15.383,-18.287 32.658,-37.296 51.808,-57.033c19.159,-19.742 39.471,-39.188 60.955,-58.346c21.479,-19.15 43.245,-36.421 65.304,-51.804c22.058,-15.383 43.829,-27.867 65.308,-37.446c21.475,-9.571 41.788,-14.362 60.946,-14.362c13.937,-0 25.687,3.195 35.267,9.579c9.579,6.379 14.366,17.125 14.366,32.216c0,18.575 -6.096,36.284 -18.283,53.117c-12.192,16.833 -28.154,32.646 -47.888,47.454c-19.741,14.8 -41.941,28.729 -66.612,41.796c-24.675,13.058 -49.342,24.808 -74.017,35.258c-24.671,10.45 -48.321,19.596 -70.962,27.434c-22.638,7.833 -41.509,14.075 -56.6,18.721c-8.125,12.774 -18.721,30.908 -31.78,54.416c-13.058,23.517 -25.829,49.2 -38.312,77.063c-12.479,27.866 -23.367,56.6 -32.65,86.2c-9.292,29.608 -13.938,56.891 -13.938,81.85c0,8.708 1.742,15.679 5.225,20.9c3.484,5.229 8.13,7.837 13.934,7.837c13.354,0 28.154,-5.075 44.404,-15.237c16.254,-10.163 35.408,-25.688 57.475,-46.584c17.408,-16.837 29.75,-29.895 37.004,-39.187c7.258,-9.283 12.046,-13.929 14.371,-13.929c2.896,-0 4.346,1.454 4.346,4.35c-0,1.75 -6.242,9.579 -18.717,23.516c-12.483,13.93 -27.425,29.025 -44.846,45.275c-15.671,14.513 -31.925,27.43 -48.762,38.75c-16.838,11.317 -31.921,16.975 -45.275,16.975c-16.838,0 -30.621,-6.091 -41.358,-18.287c-10.742,-12.188 -16.109,-33.954 -16.109,-65.304c0,-25.534 2.609,-49.775 7.833,-72.704c5.226,-22.934 11.9,-44.405 20.025,-64.434c8.13,-20.029 17.13,-38.316 26.996,-54.854c9.867,-16.546 19.446,-31.496 28.738,-44.846l-1.75,-1.741c-10.446,3.483 -23.504,7.833 -39.175,13.062c-15.679,5.221 -31.642,10.738 -47.896,16.538c-16.25,5.812 -31.929,11.762 -47.017,17.858c-15.091,6.092 -26.996,11.75 -35.704,16.979c-20.896,37.15 -44.837,71.688 -71.833,103.617c-26.996,31.921 -57.321,59.646 -90.992,83.154c-33.667,23.508 -70.529,42.083 -110.587,55.725c-40.046,13.642 -83.296,20.467 -129.734,20.467c-32.504,-0 -62.258,-3.921 -89.254,-11.759c-26.987,-7.837 -50.208,-19.012 -69.654,-33.525c-19.454,-14.512 -34.692,-32.066 -45.717,-52.675c-11.029,-20.612 -16.546,-43.396 -16.546,-68.354c0,-32.504 6.534,-61.825 19.596,-87.942c13.059,-26.125 30.621,-48.325 52.679,-66.612c22.055,-18.288 47.455,-32.363 76.192,-42.234c28.725,-9.866 58.479,-14.8 89.25,-14.8c18.575,0 37.004,2.905 55.283,8.709c18.292,5.804 34.838,14.071 49.634,24.816c14.808,10.734 26.704,24.092 35.708,40.05c8.996,15.963 13.488,34.105 13.488,54.421c-0,22.638 -5.513,43.104 -16.538,61.384c-11.029,18.287 -25.542,33.966 -43.533,47.025c-18.004,13.058 -38.034,23.07 -60.088,30.037c-22.058,6.967 -43.829,10.45 -65.304,10.45c-11.612,0 -22.933,-0.871 -33.954,-2.612c-11.033,-1.738 -20.9,-3.775 -29.608,-6.096c-8.709,-2.325 -15.821,-4.638 -21.334,-6.963c-5.521,-2.325 -8.271,-4.358 -8.271,-6.096c0,-4.066 2.025,-6.1 6.092,-6.1c0.579,0 3.192,0.88 7.838,2.617c4.645,1.742 10.745,3.771 18.287,6.092c7.542,2.321 16.108,4.358 25.688,6.1c9.579,1.737 19.883,2.608 30.904,2.608c19.741,0 40.058,-2.896 60.954,-8.708c20.9,-5.804 39.771,-14.513 56.596,-26.117c16.833,-11.617 30.775,-25.979 41.796,-43.108c11.033,-17.121 16.545,-37.004 16.545,-59.642c0,-13.929 -3.333,-26.992 -10.008,-39.183c-6.683,-12.192 -16.117,-22.642 -28.304,-31.35c-12.188,-8.7 -26.7,-15.671 -43.538,-20.896c-16.833,-5.221 -35.695,-7.833 -56.595,-7.833c-27.867,-0 -55.005,4.637 -81.409,13.929c-26.416,9.291 -50.075,22.354 -70.975,39.187c-20.896,16.834 -37.725,37.292 -50.496,61.384c-12.77,24.091 -19.158,50.933 -19.158,80.541c0,19.742 4.933,38.171 14.8,55.296c9.875,17.121 23.663,32.217 41.363,45.275c17.708,13.058 39.183,23.363 64.437,30.917c25.246,7.541 53.258,11.316 84.021,11.316c35.996,0 70.387,-6.241 103.183,-18.725c32.8,-12.479 63.275,-29.166 91.425,-50.066c28.154,-20.896 53.554,-45.275 76.196,-73.142c22.638,-27.858 41.796,-57.179 57.463,-87.942c-10.446,4.063 -21.913,9.58 -34.388,16.538c-12.483,6.971 -24.387,13.937 -35.704,20.9c-11.321,6.971 -20.9,12.921 -28.738,17.854c-7.829,4.933 -12.045,7.404 -12.62,7.404c-4.646,0 -6.967,-1.454 -6.967,-4.358c-0,-2.321 4.204,-6.383 12.629,-12.192c8.413,-5.804 19.004,-12.333 31.775,-19.587c12.775,-7.259 26.854,-14.95 42.233,-23.079c15.384,-8.125 30.042,-15.667 43.971,-22.638c9.288,-15.667 21.192,-34.971 35.704,-57.904c14.509,-22.925 30.334,-46.729 47.455,-71.4c17.125,-24.667 35.266,-48.613 54.416,-71.838c19.159,-23.216 38.317,-42.662 57.471,-58.333l-1.742,-1.746c-11.029,6.384 -22.787,13.35 -35.262,20.896c-12.483,7.554 -25.25,14.513 -38.317,20.896c-13.058,6.387 -26.412,11.762 -40.046,16.108c-13.641,4.359 -27.141,6.534 -40.495,6.534c-40.055,-0 -60.084,-20.605 -60.084,-61.817c0,-16.833 0.879,-29.9 2.621,-39.183c1.738,-9.296 2.608,-16.838 2.608,-22.638c0,-12.775 -4.35,-19.162 -13.058,-19.162c-2.908,-0 -7.696,1.312 -14.371,3.92c-6.671,2.613 -15.237,7.259 -25.687,13.93c-10.446,6.675 -22.638,15.679 -36.575,26.995c-13.929,11.321 -29.596,25.975 -47.017,43.967c-29.604,31.346 -50.646,56.892 -63.125,76.629c-12.483,19.734 -20.175,29.6 -23.075,29.6c-3.479,0 -5.229,-1.737 -5.229,-5.221c-0,-0.579 2.621,-4.787 7.837,-12.625c5.234,-7.841 12.046,-17.412 20.467,-28.729c8.417,-11.325 18.279,-23.804 29.6,-37.446c11.321,-13.641 23.079,-26.558 35.267,-38.745c24.958,-25.546 49.05,-46.3 72.271,-62.263c23.225,-15.958 46.729,-23.942 70.533,-23.942c17.996,0 30.183,5.95 36.571,17.85c6.383,11.9 9.575,24.817 9.575,38.746c-0,9.867 -0.584,18.867 -1.738,26.996c-1.166,8.125 -1.741,18.283 -1.741,30.471c-0,12.771 1.45,20.754 4.35,23.946c2.904,3.196 8.42,4.791 16.55,4.791c11.02,0 23.216,-2.325 36.566,-6.962c13.35,-4.646 27.138,-10.742 41.363,-18.288c14.216,-7.55 28.729,-15.966 43.533,-25.254c14.804,-9.287 29.458,-18.575 43.971,-27.862c8.708,-5.8 17.704,-12.625 26.996,-20.467c9.291,-7.829 18.575,-15.379 27.866,-22.637c9.284,-7.255 18.138,-13.496 26.559,-18.717c8.412,-5.229 16.108,-7.838 23.066,-7.838c9.292,0 13.938,3.48 13.938,10.446c-0,6.388 -3.633,11.467 -10.888,15.242c-7.254,3.775 -16.541,7.979 -27.866,12.629c-11.317,4.642 -24.084,10.733 -38.309,18.283c-14.225,7.546 -28.008,17.996 -41.362,31.338c-12.767,12.775 -25.538,29.608 -38.308,50.508c-12.771,20.896 -25.688,43.104 -38.746,66.613c-13.067,23.508 -25.838,46.871 -38.317,70.091c-12.483,23.221 -24.529,43.538 -36.133,60.955l1.737,1.741Z" style="fill:#a3004c;fill-rule:nonzero;stroke:#a3004c;stroke-width:4.17px;"/></g></g><g><g><g><g><g transform="matrix(-0.0871221,0.996198,-0.996198,-0.0871221,3347.81,-842.366)"><text x="2059.86px" y="1112.72px" style="font-family:'ArialMT', 'Arial', sans-serif;font-size:98.896px;fill:#a3004c;">I</text></g></g></g></g><g><g><g><g transform="matrix(-0.183144,0.983086,-0.983086,-0.183144,3582.97,-632.948)"><text x="2054.45px" y="1172.09px" style="font-family:'ArialMT', 'Arial', sans-serif;font-size:98.896px;fill:#a3004c;">N</text></g></g></g></g><g><g><g><g transform="matrix(-0.299565,0.954076,-0.954076,-0.299565,3854.4,-294.122)"><text x="2035.16px" y="1267.79px" style="font-family:'ArialMT', 'Arial', sans-serif;font-size:98.896px;fill:#a3004c;">V</text></g></g></g></g><g><g><g><g transform="matrix(-0.390511,0.920598,-0.920598,-0.390511,4038.94,47.2835)"><text x="2003.82px" y="1360.65px" style="font-family:'ArialMT', 'Arial', sans-serif;font-size:98.896px;fill:#a3004c;">I</text></g></g></g></g><g><g><g><g transform="matrix(-0.476316,0.879274,-0.879274,-0.476316,4168.03,348.467)"><text x="1980.25px" y="1415.45px" style="font-family:'ArialMT', 'Arial', sans-serif;font-size:98.896px;fill:#a3004c;">T</text></g></g></g></g><g><g><g><g transform="matrix(-0.57682,0.816872,-0.816872,-0.57682,4273.33,782.634)"><text x="1933.94px" y="1498.22px" style="font-family:'ArialMT', 'Arial', sans-serif;font-size:98.896px;fill:#a3004c;">A</text></g></g></g></g><g><g><g><g transform="matrix(-0.66925,0.743037,-0.743037,-0.66925,4304.04,1238.39)"><text x="1876.39px" y="1577.13px" style="font-family:'ArialMT', 'Arial', sans-serif;font-size:98.896px;fill:#a3004c;">C</text></g></g></g></g><g><g><g><g transform="matrix(-0.736899,0.676003,-0.676003,-0.736899,4258.95,1635.51)"><text x="1811.2px" y="1646.55px" style="font-family:'ArialMT', 'Arial', sans-serif;font-size:98.896px;fill:#a3004c;">I</text></g></g></g></g><g><g><g><g transform="matrix(-0.799832,0.600224,-0.600224,-0.799832,4193.05,1975.09)"><text x="1767.19px" y="1686.71px" style="font-family:'ArialMT', 'Arial', sans-serif;font-size:98.896px;fill:#a3004c;">O</text></g></g></g></g><g><g><g><g transform="matrix(-0.866757,0.498731,-0.498731,-0.866757,4018.16,2417.82)"><text x="1686.1px" y="1745.66px" style="font-family:'ArialMT', 'Arial', sans-serif;font-size:98.896px;fill:#a3004c;">N</text></g></g></g></g><g><g><g><g transform="matrix(-0.918606,0.395174,-0.395174,-0.918606,3779.63,2807.59)"><text x="1600.68px" y="1793.04px" style="font-family:'ArialMT', 'Arial', sans-serif;font-size:98.896px;fill:#a3004c;">E</text></g></g></g></g><g><g><g><g transform="matrix(-0.954752,0.297404,-0.297404,-0.954752,3507.96,3121.36)"><text x="1516.53px" y="1827.54px" style="font-family:'ArialMT', 'Arial', sans-serif;font-size:98.896px;fill:#a3004c;">S</text></g></g></g></g></g></g></svg>